<?xml version="1.0" encoding="utf-8"?>
<!-- Generator: Adobe Illustrator 24.3.0, SVG Export Plug-In . SVG Version: 6.00 Build 0)  -->
<svg version="1.1" id="Layer_1" xmlns="http://www.w3.org/2000/svg" xmlns:xlink="http://www.w3.org/1999/xlink" x="0px" y="0px"
	 viewBox="0 0 32 32" style="enable-background:new 0 0 32 32;" xml:space="preserve">
<g>
	<path d="M29.8,27.1c0,0.6,0,1.1,0,1.7c0,0.5-0.2,0.7-0.7,0.7c-0.7,0-1.4,0-2,0c-0.3,0-0.5-0.2-0.7-0.4c-0.1,0-0.1-0.1-0.1-0.2
		c-0.4-0.6-0.6-1.4-1.2-1.7c-0.5-0.3-1.4-0.1-2.1-0.1c-5.1,0-10.3,0-15.4,0c-0.4,0-0.7,0.1-0.9,0.5c-0.6,1.7-1.8,2.3-3.5,2
		c-0.8-0.1-0.9-0.1-0.9-0.9c0-0.5,0-1,0-1.5c-1.5-0.4-2-1-2-2.5c0-6.6,0-13.2,0-19.9c0-1.6,0.7-2.3,2.3-2.3c9,0,18,0,26.9,0
		c1.5,0,2.3,0.8,2.3,2.3c0,6.6,0,13.2,0,19.9C31.7,26.1,31.3,26.7,29.8,27.1z M16,26c4.5,0,8.9,0,13.4,0c1,0,1.4-0.3,1.4-1.4
		c0-6.6,0-13.3,0-19.9c0-1-0.3-1.4-1.4-1.4c-8.9,0-17.9,0-26.8,0c-1,0-1.4,0.3-1.4,1.4c0,6.6,0,13.3,0,19.9c0,1,0.3,1.4,1.4,1.4
		C7.1,26,11.5,26,16,26z M5.7,27.1c-0.8,0-1.6,0-2.4,0c0,0.5,0,1,0,1.4C5,28.6,5.1,28.5,5.7,27.1z M28.8,27.1c-0.9,0-1.6,0-2.5,0
		c0.8,1.5,0.9,1.6,2.5,1.3C28.8,28,28.8,27.5,28.8,27.1z"/>
	<path d="M2.2,14.7c0-5.1,4.2-9.4,9.3-9.3c5.2,0,9.4,4.2,9.4,9.4c0,5.1-4.2,9.3-9.4,9.3C6.4,24.1,2.2,19.9,2.2,14.7z M19.9,14.7
		c0-4.6-3.7-8.4-8.4-8.4c-4.6,0-8.4,3.8-8.3,8.4c0,4.6,3.8,8.3,8.3,8.3C16.2,23.1,19.9,19.3,19.9,14.7z"/>
	<path d="M25.8,5.6c1.1,0,2.2,0,3.3,0c0.4,0,0.7,0.1,0.6,0.5c0,0.2-0.4,0.4-0.6,0.4c-2.2,0-4.3,0-6.5,0c-0.4,0-0.7-0.1-0.6-0.5
		c0-0.2,0.4-0.4,0.6-0.4C23.7,5.6,24.8,5.6,25.8,5.6z"/>
	<path d="M25.8,9.1c-1.1,0-2.1,0-3.2,0c-0.4,0-0.7-0.1-0.7-0.5c0-0.4,0.3-0.5,0.7-0.5c2.1,0,4.3,0,6.4,0c0.4,0,0.7,0.1,0.7,0.5
		c0,0.4-0.3,0.5-0.7,0.5C28,9.1,26.9,9.1,25.8,9.1z"/>
	<path d="M25.9,10.5c1.1,0,2.1,0,3.2,0c0.4,0,0.7,0.1,0.6,0.5c0,0.2-0.4,0.4-0.6,0.4c-2.2,0-4.3,0-6.5,0c-0.4,0-0.7-0.1-0.6-0.5
		c0-0.2,0.4-0.4,0.6-0.4C23.7,10.5,24.8,10.5,25.9,10.5z"/>
	<path d="M25.9,13c1.1,0,2.1,0,3.2,0c0.2,0,0.6,0.3,0.6,0.4c0.1,0.4-0.3,0.5-0.6,0.5c-2.2,0-4.3,0-6.5,0c-0.2,0-0.6-0.3-0.6-0.4
		c-0.1-0.4,0.3-0.5,0.6-0.5C23.7,13,24.8,13,25.9,13z"/>
	<path d="M25.8,15.5c1,0,2.1,0,3.1,0c0.4,0,0.8,0,0.8,0.5c0,0.5-0.4,0.5-0.8,0.5c-2.1,0-4.2,0-6.3,0c-0.4,0-0.8,0-0.7-0.5
		c0-0.5,0.4-0.5,0.8-0.5C23.7,15.5,24.8,15.5,25.8,15.5z"/>
	<path d="M25.8,18.9c-1.1,0-2.1,0-3.2,0c-0.4,0-0.7,0-0.7-0.5c0-0.4,0.4-0.5,0.7-0.5c2.1,0,4.3,0,6.4,0c0.4,0,0.7,0.1,0.7,0.5
		c0,0.4-0.4,0.5-0.7,0.5C28,18.9,26.9,18.9,25.8,18.9z"/>
	<path d="M25.8,20.4c1.1,0,2.2,0,3.3,0c0.4,0,0.7,0.1,0.6,0.5c0,0.2-0.4,0.4-0.6,0.4c-2.2,0-4.3,0-6.5,0c-0.4,0-0.7-0.1-0.6-0.5
		c0-0.2,0.4-0.4,0.6-0.4C23.7,20.4,24.8,20.4,25.8,20.4z"/>
	<path d="M25.9,23.8c-1.1,0-2.2,0-3.3,0c-0.4,0-0.7-0.1-0.7-0.5c0-0.2,0.4-0.5,0.6-0.5c2.2,0,4.3,0,6.5,0c0.4,0,0.7,0.1,0.7,0.5
		c0,0.4-0.4,0.5-0.7,0.5C28,23.8,26.9,23.8,25.9,23.8z"/>
	<path d="M4.2,14.1c0-1,0.4-1.7,1.3-2.2c0.9-0.4,1.7-0.2,2.5,0.4c0.4,0.3,0.8,0.6,1.2,0.8c0.1,0.1,0.4,0,0.5-0.1
		c0.1-0.1,0.2-0.4,0.1-0.5c-0.1-0.4-0.3-0.8-0.5-1.3c-0.4-1.1-0.2-2.1,0.5-2.9c0.7-0.9,1.7-1.2,2.9-1c1.7,0.3,2.4,2.3,1.3,3.6
		c-0.3,0.4-0.6,0.8-0.8,1.2c-0.1,0.2-0.1,0.5,0,0.6c0.1,0.1,0.4,0.1,0.6,0.1c0.4-0.1,0.8-0.3,1.2-0.5c1.1-0.4,2.1-0.2,2.9,0.6
		c0.9,0.8,1.2,1.8,0.9,2.9c-0.3,1.7-2.3,2.3-3.7,1.2c-0.4-0.3-0.8-0.6-1.3-0.8c-0.1-0.1-0.4,0-0.5,0.1c-0.1,0.1-0.1,0.4-0.1,0.5
		c0.1,0.4,0.4,0.8,0.5,1.3c0.4,1.1,0.2,2.1-0.5,2.9c-0.8,0.9-1.8,1.2-2.9,1c-1.7-0.3-2.4-2.3-1.3-3.6c0.3-0.4,0.6-0.8,0.8-1.2
		c0.1-0.2,0.1-0.5,0-0.6c-0.1-0.1-0.4-0.1-0.6-0.1c-0.4,0.1-0.7,0.3-1,0.4C6.2,17.7,4.2,16.3,4.2,14.1z M14,13.9c0,0.4,0,0.7,0.1,1
		c0,0.1,0.1,0.3,0.2,0.4c0.6,0.4,1.2,0.7,1.7,1.1c0.8,0.5,1.8,0.2,2-0.7c0.3-1.5-1.1-2.8-2.5-2.3C14.9,13.5,14.5,13.7,14,13.9z
		 M12,12.2c0.2-0.3,0.3-0.7,0.5-1c0.2-0.3,0.5-0.6,0.7-0.9c0.5-0.7,0.2-1.7-0.6-1.9c-1.4-0.4-2.8,0.9-2.5,2.3
		c0.1,0.6,0.4,1.1,0.6,1.7C11.2,12.3,11.6,12.3,12,12.2z M9.2,15.5c0-0.4,0-0.7-0.1-1c0-0.1-0.1-0.3-0.2-0.4
		c-0.5-0.4-1.1-0.7-1.7-1.1c-0.8-0.5-1.8-0.2-2,0.7c-0.4,1.4,1,2.8,2.4,2.4C8.2,16,8.7,15.7,9.2,15.5z M11.2,17.2
		c-0.5,0.7-0.9,1.3-1.3,1.9c-0.5,0.8-0.2,1.8,0.7,2c1.5,0.4,2.8-1,2.4-2.4c-0.2-0.5-0.4-1-0.6-1.5C11.9,17.2,11.5,17.2,11.2,17.2z
		 M11.6,16.2c0.8,0,1.5-0.7,1.5-1.5c0-0.8-0.7-1.5-1.5-1.4c-0.8,0-1.4,0.7-1.4,1.5C10.1,15.5,10.8,16.2,11.6,16.2z"/>
</g>
</svg>
