<?xml version="1.0" encoding="utf-8"?>
<!-- Generator: Adobe Illustrator 24.3.0, SVG Export Plug-In . SVG Version: 6.00 Build 0)  -->
<svg version="1.1" id="Layer_1" xmlns="http://www.w3.org/2000/svg" xmlns:xlink="http://www.w3.org/1999/xlink" x="0px" y="0px"
	 viewBox="0 0 32 32" style="enable-background:new 0 0 32 32;" xml:space="preserve">
<g>
	<path d="M15.9,16c-4.2,0-8.3,0-12.5,0c-2.1,0-3.3-1.4-3.2-3.2c0.1-1.9,0-3.8,0-5.6c0-1.9,1.1-3,3-3c8.5,0,17,0,25.4,0
		c1.9,0,3,1.2,3,3c0,1.9,0,3.9,0,5.8c0,1.9-1.1,3-3,3C24.4,16,20.1,16,15.9,16z M1.2,11.9c0.3,0,0.6,0,0.8,0c5.7,0,11.4,0,17,0
		c0.4,0,0.8,0,0.8,0.5c0,0.5-0.4,0.5-0.8,0.5c-0.1,0-0.3,0-0.4,0c-5.6,0-11.1,0-16.7,0c-0.2,0-0.5,0-0.7,0c-0.2,0.6,0.2,0.6,0.5,0.6
		c2.8,0,5.6,0,8.4,0c0.2,0,0.4,0,0.6,0c0.1,0.1,0.3,0.3,0.3,0.4c0,0.2-0.2,0.4-0.3,0.5c-0.1,0.1-0.4,0-0.5,0c-2.6,0-5.2,0-7.9,0
		c-0.2,0-0.4,0-0.7,0C2.1,15,2.8,15,3.4,15c8.4,0,16.7,0,25.1,0c0.2,0,0.4,0,0.5,0c0.4-0.1,0.8-0.3,1.2-0.5c0-0.1,0-0.1-0.1-0.2
		c-0.2,0-0.5,0-0.7,0c-5.5,0-11,0-16.5,0c-0.4,0-1,0.2-1-0.5c0-0.6,0.6-0.4,1-0.4c5.6,0,11.3,0,16.9,0c0.1,0,0.3,0,0.4,0
		c0.4,0,0.4,0,0.3-0.6c-0.2,0-0.4,0-0.7,0c-2.7,0-5.5,0-8.2,0c-0.2,0-0.4,0.1-0.5,0c-0.2-0.1-0.3-0.3-0.5-0.4
		c0.2-0.2,0.3-0.4,0.5-0.5c0.1-0.1,0.4,0,0.5,0c2.7,0,5.5,0,8.2,0c0.2,0,0.4,0,0.7,0c0-1.6,0-3.1,0-4.5c0-1.8-0.6-2.4-2.4-2.4
		C20.1,5,11.8,5,3.5,5C3.3,5,3,5,2.8,5C2,5.1,1.2,5.7,1.2,6.5C1.1,8.3,1.2,10,1.2,11.9z"/>
	<path d="M15.7,22.4c-0.1-0.2-0.5-0.2-0.4-0.5c0.2-0.3,0.4,0,0.6,0.1c0.1-0.2-0.1-0.6,0.3-0.6c0.3,0,0.2,0.4,0.3,0.5
		c0.2,0,0.4-0.4,0.6,0c0.2,0.3-0.3,0.3-0.4,0.5c0.1,0.2,0.6,0.2,0.4,0.6c-0.2,0.3-0.4,0-0.6-0.1c-0.1,0.2,0.1,0.6-0.3,0.6
		c-0.3,0-0.2-0.4-0.2-0.6c-0.2,0-0.4,0.4-0.6,0.1C15.1,22.6,15.6,22.6,15.7,22.4z"/>
	<path d="M26.3,20.1c-0.2-0.2-0.7-0.3-0.5-0.7c0.2-0.4,0.5,0,0.8,0.1c0.1-0.2-0.1-0.7,0.3-0.7c0.4,0,0.2,0.5,0.3,0.7
		c0.3,0,0.6-0.5,0.8,0c0.2,0.4-0.3,0.4-0.5,0.7c0.1,0.3,0.7,0.3,0.5,0.7c-0.2,0.4-0.5-0.1-0.8-0.1c-0.1,0.3,0.1,0.7-0.4,0.7
		c-0.4,0-0.2-0.5-0.3-0.7c-0.3,0-0.6,0.5-0.8,0.1C25.6,20.3,26.2,20.3,26.3,20.1z"/>
	<path d="M8.9,19.1c-0.2-0.3-0.8-0.3-0.6-0.8c0.3-0.5,0.6,0.1,0.9,0.1c0.1-0.3-0.1-0.8,0.4-0.8c0.5,0,0.3,0.5,0.4,0.8
		c0.3,0,0.7-0.6,0.9,0c0.2,0.5-0.4,0.5-0.6,0.8c0.1,0.3,0.9,0.3,0.5,0.8c-0.3,0.4-0.6-0.1-0.9-0.1c-0.1,0.3,0.1,0.9-0.4,0.8
		c-0.5,0-0.3-0.5-0.4-0.8c-0.3,0-0.7,0.6-0.9,0.1C8,19.4,8.7,19.4,8.9,19.1z"/>
	<path d="M15.9,7.6c-0.4,0-0.8,0-1.2,0c-0.2,0-0.4-0.3-0.6-0.4c0.2-0.2,0.3-0.5,0.5-0.5c0.9,0,1.8,0,2.6,0c0.2,0,0.3,0.3,0.5,0.5
		c-0.2,0.1-0.3,0.4-0.5,0.4C16.8,7.6,16.4,7.6,15.9,7.6C15.9,7.6,15.9,7.6,15.9,7.6z"/>
	<circle cx="26.9" cy="10.4" r="0.4"/>
	<circle cx="29.4" cy="10.4" r="0.4"/>
</g>
</svg>
