<?xml version="1.0" encoding="utf-8"?>
<!-- Generator: Adobe Illustrator 24.3.0, SVG Export Plug-In . SVG Version: 6.00 Build 0)  -->
<svg version="1.1" id="Layer_1" xmlns="http://www.w3.org/2000/svg" xmlns:xlink="http://www.w3.org/1999/xlink" x="0px" y="0px"
	 viewBox="0 0 32 32" style="enable-background:new 0 0 32 32;" xml:space="preserve">
<g>
	<path d="M7.8,30.8c0.4,0,0.7-0.1,1,0c0.2,0.1,0.4,0.3,0.6,0.5c-0.2,0.2-0.4,0.4-0.6,0.5c-1.7,0-3.4,0.1-5,0
		c-1.8-0.1-3.4-1.7-3.5-3.5c0-0.2,0-0.4,0-0.6c0-7.7,0-15.5,0-23.2c0-2.5,1.6-4.1,4.1-4.1c7.8,0,15.5,0,23.3,0
		c2.5,0,4.1,1.6,4.1,4.1c0,7.8,0,15.5,0,23.3c0,2.5-1.6,4.1-4.1,4.1c-5.4,0-10.8,0-16.2,0c-0.2,0-0.4,0-0.5,0
		c-0.2-0.1-0.4-0.3-0.4-0.4c0-0.2,0.2-0.4,0.4-0.5c0.2-0.1,0.4,0,0.7,0c3.9,0,7.8,0,11.7,0c0.2,0,0.5,0,0.8,0c0-0.8,0.1-1.6,0-2.4
		c-0.1-0.7-0.7-1.1-1.5-1.1c-2.1,0-4.1,0-6.2,0c-2.3,0-4.6,0-6.9,0c-1.2,0-1.8,0.6-1.8,1.8C7.8,29.6,7.8,30.2,7.8,30.8z M30.7,25.2
		c-0.6,0-1.1,0-1.7,0c-1.8,0-2.7-1-2.7-2.7c0-4.3,0-8.6,0-12.9c0-1.7,1-2.7,2.7-2.7c0.6,0,1.2,0,1.8,0c0-0.2,0-0.3,0-0.4
		c0-0.9,0-1.8,0-2.6c-0.1-1.2-0.9-2.4-2.1-2.5c-1.1-0.2-2.3,0-3.5,0c0,0.6,0,1.1,0,1.7c0,1.7-1,2.7-2.7,2.7c-4.3,0-8.6,0-12.9,0
		C7.8,5.7,6.9,4.7,6.8,3c0-0.6,0-1.1,0-1.8c-1,0-2,0-3,0C2.7,1.3,1.8,1.9,1.4,3C1,4.3,1.3,5.6,1.2,6.9c0.7,0,1.3,0,1.8,0
		c1.7,0,2.6,1,2.6,2.6c0,4.3,0,8.6,0,13c0,1.7-1,2.7-2.7,2.7c-0.6,0-1.1,0-1.7,0c0,0.2,0,0.2,0,0.3c0,0.9,0,1.8,0,2.6
		c0.1,1.2,0.9,2.4,2.1,2.5c1.1,0.2,2.3,0,3.5,0c0-0.5,0-1.1,0-1.6c0-1.8,1-2.8,2.8-2.8c4.3,0,8.5,0,12.8,0c1.8,0,2.7,0.9,2.8,2.7
		c0,0.5,0,1.1,0,1.7c1,0,2,0,3,0c1.2-0.1,2.4-1,2.5-2.2C30.8,27.5,30.7,26.4,30.7,25.2z M24.2,1.2c-5.5,0-10.9,0-16.4,0
		c0,0.5,0,1,0,1.4c0,1.6,0.5,2.1,2.1,2.1c4.1,0,8.2,0,12.3,0c0.2,0,0.5,0,0.7,0c0.8-0.1,1.3-0.6,1.4-1.4C24.3,2.7,24.2,2,24.2,1.2z
		 M1.2,7.8c0,5.5,0,10.9,0,16.4c0.6,0,1.1,0,1.6,0c1.4,0,1.9-0.5,1.9-1.8c0-3.1,0-6.2,0-9.3c0-1.3,0-2.5,0-3.8
		c0-0.8-0.5-1.4-1.3-1.5C2.7,7.8,2,7.8,1.2,7.8z M30.7,24.2c0-5.5,0-10.9,0-16.4c-0.6,0-1.1,0-1.6,0c-1.4,0-1.9,0.5-1.9,1.9
		c0,4.2,0,8.4,0,12.7c0,0.2,0,0.4,0,0.6c0.1,0.7,0.6,1.3,1.3,1.3C29.3,24.3,30,24.2,30.7,24.2z"/>
	<path d="M16,29.5c-2,0-4,0-6,0c-0.2,0-0.6-0.1-0.7-0.3c-0.2-0.3,0-0.6,0.3-0.6c0.2,0,0.4,0,0.6,0c3.8,0,7.7,0,11.5,0
		c0.2,0,0.4,0,0.5,0c0.2,0.1,0.3,0.3,0.5,0.5c-0.2,0.1-0.3,0.4-0.5,0.4c-0.4,0.1-0.9,0-1.3,0C19.3,29.5,17.6,29.5,16,29.5z"/>
	<path d="M16,23.7c-2.2,0-4.3,0-6.5,0c-0.9,0-1.2-0.2-1.2-1.2c0-4.3,0-8.7,0-13c0-0.9,0.2-1.1,1.1-1.1c4.4,0,8.7,0,13.1,0
		c0.9,0,1.1,0.2,1.1,1.1c0,4.4,0,8.8,0,13.2c0,0.8-0.3,1.1-1.1,1.1C20.3,23.7,18.2,23.7,16,23.7z M22.7,18.9c-0.4,0-0.7,0-1,0
		c-0.3,0-0.7,0-0.7-0.5c0-0.4,0.3-0.4,0.7-0.4c0.3,0,0.7,0,1,0c0-0.1,0.1-0.1,0.1-0.2c-0.1-0.2-0.2-0.5-0.3-0.5c-1.2,0-2.4,0-3.6,0
		c0,0.3,0,0.5,0,0.6c0.2,0,0.2,0,0.3,0c0.3,0,0.7,0,0.7,0.5c0,0.5-0.4,0.5-0.7,0.5c-0.5,0-0.4,0.3-0.3,0.6c1.3,0,2.5,0,3.8,0
		C22.7,19.3,22.7,19.1,22.7,18.9z M13.1,9.3c-1.3,0-2.5,0-3.8,0c0,0.2,0,0.4,0,0.6c1.3,0,2.5,0,3.8,0C13.1,9.7,13.1,9.5,13.1,9.3z
		 M18.9,9.9c1.3,0,2.6,0,3.9,0c0-0.2,0-0.4-0.1-0.6c-1.3,0-2.5,0-3.8,0C18.9,9.5,18.9,9.7,18.9,9.9z M17.9,9.3c-1.3,0-2.5,0-3.8,0
		c0,0.2,0,0.4,0,0.6c1.3,0,2.5,0,3.8,0C17.9,9.7,17.9,9.5,17.9,9.3z M13.1,10.9c-1.3,0-2.6,0-3.8,0c0,0.2,0,0.4,0,0.6
		c1.3,0,2.5,0,3.8,0C13.1,11.3,13.1,11.1,13.1,10.9z M17.9,11.5c0.1,0,0.1-0.1,0.2-0.1c-0.1-0.2-0.2-0.5-0.3-0.5c-1.2,0-2.4,0-3.6,0
		c0,0.2,0,0.4,0,0.6C15.4,11.5,16.6,11.5,17.9,11.5z M22.7,10.9c-1.2,0-2.4,0-3.6,0c-0.1,0-0.2,0.3-0.4,0.6c1.4,0,2.7,0,3.9,0
		C22.7,11.3,22.7,11.1,22.7,10.9z M13.1,12.5c-1.3,0-2.5,0-3.8,0c0,0.2,0,0.4,0.1,0.6c1.3,0,2.5,0,3.8,0
		C13.1,12.9,13.1,12.7,13.1,12.5z M17.9,14.1c-1.3,0-2.5,0-3.8,0c0,0.2,0,0.4,0,0.6c1.3,0,2.5,0,3.8,0
		C17.9,14.5,17.9,14.3,17.9,14.1z M22.7,14.1c-1.2,0-2.3,0-3.4,0c-0.5,0-0.6,0.2-0.4,0.6c1.3,0,2.5,0,3.8,0
		C22.7,14.5,22.7,14.3,22.7,14.1z M9.3,15.7c0,0.3,0,0.4,0,0.6c1.3,0,2.5,0,3.8,0c0,0,0.1-0.1,0.1-0.1c-0.1-0.2-0.3-0.5-0.4-0.5
		C11.7,15.7,10.5,15.7,9.3,15.7z M14.1,16.3c1.3,0,2.6,0,3.8,0c0,0,0.1-0.1,0.1-0.1c-0.1-0.2-0.3-0.4-0.4-0.5c-1.2,0-2.3,0-3.5,0
		C14.1,15.9,14.1,16.1,14.1,16.3z M18.9,16.3c1.2,0,2.3,0,3.3,0c0.5,0,0.6-0.2,0.4-0.6c-1.3,0-2.5,0-3.8,0
		C18.9,15.9,18.9,16.1,18.9,16.3z M17.9,17.3c-1.3,0-2.6,0-3.8,0c0,0.2,0,0.4,0,0.6c1.3,0,2.5,0,3.8,0
		C17.9,17.7,17.9,17.5,17.9,17.3z M14.1,21.1c1.3,0,2.5,0,3.8,0c0-0.2,0-0.4,0-0.6c-1.3,0-2.5,0-3.8,0
		C14.1,20.7,14.1,20.9,14.1,21.1z M22.9,13.1c-0.2-0.3-0.3-0.6-0.4-0.6c-1.2,0-2.4,0-3.6,0c0,0.3,0,0.4,0,0.6
		C20.2,13.1,21.4,13.1,22.9,13.1z M17.9,12.5c-1.3,0-2.5,0-3.8,0c0,0.2,0,0.4,0,0.6c1.3,0,2.5,0,3.8,0
		C17.9,12.9,17.9,12.7,17.9,12.5z M13.1,14.7c0-0.3,0.2-0.6-0.3-0.6c-1.1,0-2.3,0-3.4,0c0,0-0.1,0-0.1,0.1c0,0.1,0,0.3,0,0.5
		C10.6,14.7,11.8,14.7,13.1,14.7z M9.3,17.9c1.2,0,2.4,0,3.5,0c0.1,0,0.3-0.2,0.3-0.3c0-0.1-0.2-0.3-0.3-0.3c-1.2,0-2.4,0-3.6,0
		C9.3,17.5,9.3,17.7,9.3,17.9z M13,19.5c0.1,0,0.1-0.1,0.2-0.1c-0.1-0.2-0.3-0.5-0.4-0.5c-1.2,0-2.3,0-3.5,0c0,0.2,0,0.4,0,0.6
		C10.6,19.5,11.8,19.5,13,19.5z M9.3,21.1c1.2,0,2.5,0,3.8,0c0.2-0.4,0.1-0.6-0.4-0.6c-1,0-1.9,0-2.9,0C9.4,20.4,9.2,20.6,9.3,21.1z
		 M18.9,20.5c-0.2,0.5-0.1,0.7,0.4,0.7c0.3,0,0.5,0,0.8,0c0.9,0,1.7,0,2.6,0c0-0.4,0.1-0.7-0.4-0.7C21.2,20.5,20.1,20.5,18.9,20.5z
		 M13.1,22.1c-1.3,0-2.5,0-3.8,0c0,0.2,0,0.4,0,0.6c1.1,0,2.2,0,3.3,0C13.1,22.7,13.2,22.6,13.1,22.1z M22.7,22.1c-1.3,0-2.5,0-4,0
		c0.2,0.3,0.4,0.6,0.5,0.6c1.2,0,2.3,0,3.5,0C22.7,22.5,22.7,22.3,22.7,22.1z M14.1,19.5c1.3,0,2.5,0,3.7,0c0.2-0.5,0-0.6-0.4-0.6
		c-1,0-1.9,0-2.9,0C14.1,18.8,14,19,14.1,19.5z M17.9,22.1c-1.3,0-2.6,0-3.8,0c0,0.2,0,0.4,0,0.6c1.3,0,2.5,0,3.8,0
		C17.9,22.5,17.9,22.3,17.9,22.1z"/>
	<path d="M25.2,16c0,2.2,0,4.5,0,6.7c0,1.6-0.9,2.5-2.5,2.5c-4.5,0-9,0-13.5,0c-1.6,0-2.5-0.9-2.5-2.5c0-4.5,0-9,0-13.5
		c0-1.6,0.9-2.5,2.5-2.5c0.5,0,1,0,1.5,0c0.3,0,0.6,0.1,0.6,0.5c0,0.4-0.3,0.5-0.7,0.5c-0.5,0-1.1,0-1.6,0c-1,0-1.5,0.5-1.5,1.4
		c0,4.6,0,9.1,0,13.7c0,1,0.5,1.4,1.5,1.4c4.5,0,9.1,0,13.6,0c1,0,1.5-0.5,1.5-1.5c0-4.5,0-9.1,0-13.6c0-1-0.5-1.5-1.5-1.5
		c-3,0-6.1,0-9.1,0c-0.4,0-1,0.2-1-0.5c0-0.6,0.6-0.4,1-0.4c3,0,6,0,9,0c1.7,0,2.6,0.9,2.6,2.6C25.2,11.6,25.2,13.8,25.2,16z"/>
	<path d="M15.9,3.3c-1.9,0-3.8,0-5.7,0c-0.2,0-0.4,0-0.6-0.1C9.5,3.1,9.3,2.9,9.3,2.8c0-0.1,0.2-0.3,0.3-0.4c0.2-0.1,0.4,0,0.5,0
		c3.9,0,7.7,0,11.6,0c0.2,0,0.4,0,0.5,0c0.2,0.1,0.4,0.3,0.4,0.4c0,0.2-0.2,0.4-0.4,0.5c-0.1,0.1-0.4,0-0.5,0
		C19.8,3.3,17.9,3.3,15.9,3.3z"/>
	<path d="M3.4,15.9c0,1.9,0,3.8,0,5.8c0,0.2,0,0.4,0,0.5c-0.1,0.2-0.3,0.3-0.4,0.3c-0.1,0-0.3-0.2-0.4-0.4c-0.1-0.2,0-0.4,0-0.6
		c0-3.8,0-7.7,0-11.5c0-0.1,0-0.2,0-0.3c0.1-0.2,0.3-0.6,0.4-0.6c0.4-0.1,0.5,0.3,0.5,0.6C3.4,11.9,3.4,13.9,3.4,15.9z"/>
	<path d="M28.6,15.9c0-1.9,0-3.8,0-5.8c0-0.2,0-0.4,0.1-0.5c0.1-0.1,0.3-0.3,0.5-0.3c0.1,0,0.3,0.2,0.4,0.3c0.1,0.2,0.1,0.4,0.1,0.5
		c0,3.9,0,7.8,0,11.7c0,0.1,0,0.2,0,0.2c-0.1,0.2-0.3,0.4-0.5,0.6c-0.2-0.2-0.4-0.4-0.5-0.6c-0.1-0.6,0-1.2,0-1.8
		C28.6,18.7,28.6,17.3,28.6,15.9z"/>
</g>
</svg>
