<?xml version="1.0" encoding="utf-8"?>
<!-- Generator: Adobe Illustrator 24.3.0, SVG Export Plug-In . SVG Version: 6.00 Build 0)  -->
<svg version="1.1" id="Layer_1" xmlns="http://www.w3.org/2000/svg" xmlns:xlink="http://www.w3.org/1999/xlink" x="0px" y="0px"
	 viewBox="0 0 32 32" style="enable-background:new 0 0 32 32;" xml:space="preserve">
<g>
	<g>
		<path d="M16,31.7c-4.4,0-8.9,0-13.3,0c-1.6,0-2.4-0.8-2.4-2.4c0-6.2,0-12.3,0-18.5c0-1,0.4-1.7,1.2-2.2C5.7,6.1,9.8,3.5,14,0.9
			c1.3-0.8,2.6-0.8,3.9,0c4.2,2.6,8.4,5.2,12.6,7.8c0.8,0.5,1.2,1.2,1.2,2.2c0,6.2,0,12.3,0,18.5c0,1.6-0.8,2.4-2.4,2.4
			C24.9,31.7,20.4,31.7,16,31.7z M30.3,9.8c-0.1-0.1-0.2-0.2-0.3-0.2c-4.2-2.6-8.4-5.2-12.7-7.9c-0.9-0.6-1.8-0.5-2.7,0.1
			C11.2,3.9,7.9,5.9,4.5,8C3.6,8.6,2.7,9.2,1.7,9.8c4.2,3.4,8.4,6.7,12.6,10c1.1-0.8,2.2-0.8,3.4,0C21.9,16.4,26,13.1,30.3,9.8z
			 M2.4,30.6c9.1,0,18.1,0,27.2,0c-0.2-0.2-0.3-0.2-0.3-0.3c-4-3.2-8.1-6.4-12.1-9.6c-0.8-0.7-1.3-0.7-2.2,0
			c-2.7,2.2-5.5,4.3-8.2,6.5C5.3,28.3,3.9,29.4,2.4,30.6z M1.4,10.8c0,6.5,0,12.8,0,19.2c4.1-3.2,8.1-6.4,12.1-9.6
			C9.5,17.3,5.5,14.1,1.4,10.8z M30.6,30.1c0-6.5,0-12.8,0-19.2c-4.1,3.2-8.1,6.4-12.1,9.6C22.6,23.7,26.5,26.8,30.6,30.1z"/>
	</g>
	<path d="M16.5,7.4c0,0.1,0,0.2,0,0.3c0,2.7,0,5.5,0,8.2c0,0.1,0,0.2,0,0.3c-0.1,0.2-0.2,0.4-0.5,0.4c-0.2,0-0.4-0.1-0.5-0.4
		c0-0.1,0-0.2,0-0.3c0-2.7,0-5.5,0-8.2c0-0.1,0-0.1,0-0.3c-0.1,0.1-0.2,0.1-0.2,0.2c-0.8,0.8-1.5,1.5-2.3,2.3
		c-0.1,0.1-0.2,0.2-0.3,0.2c-0.2,0.1-0.4,0-0.5-0.2c-0.1-0.2-0.1-0.4,0-0.6c0-0.1,0.1-0.1,0.1-0.2c1.1-1.1,2.2-2.2,3.3-3.3
		c0.4-0.4,0.6-0.3,0.9,0c1.1,1.1,2.2,2.2,3.3,3.3C20,9.4,20,9.7,19.9,9.9c-0.2,0.3-0.5,0.3-0.8,0.1c-0.8-0.8-1.5-1.5-2.3-2.3
		C16.7,7.6,16.6,7.5,16.5,7.4C16.5,7.4,16.5,7.4,16.5,7.4z"/>
</g>
</svg>
