<?xml version="1.0" encoding="utf-8"?>
<!-- Generator: Adobe Illustrator 24.3.0, SVG Export Plug-In . SVG Version: 6.00 Build 0)  -->
<svg version="1.1" id="Layer_1" xmlns="http://www.w3.org/2000/svg" xmlns:xlink="http://www.w3.org/1999/xlink" x="0px" y="0px"
	 viewBox="0 0 32 32" style="enable-background:new 0 0 32 32;" xml:space="preserve">
<g>
	<path d="M11.8,9.7c0-0.8,0-1.5,0-2.2c0-0.8,0.1-0.9,0.9-0.9c0.2,0,0.4,0,0.6,0c0-0.3,0-0.6,0-0.9c-0.8,0.1-1.7,0.2-2.5,0.3
		C9.6,6.1,8.3,6.3,7,6.5c-0.8,0.1-1,0-1-0.9c0-1.5,0-3,0-4.5c0-0.8,0.2-0.9,1-0.8c2.1,0.3,4.2,0.6,6.3,0.9c0.2-1,0.2-1,1.2-1
		c3.5,0,7,0,10.6,0c0.8,0,0.9,0.1,0.9,0.9c0,0.5,0,1,0,1.5c0,0.6-0.2,0.8-0.8,0.8c-1.4,0-2.7,0-4.1,0c-0.1,0-0.2,0-0.4,0.1
		c0.8,0.3,1.6,0.5,2.3,0.8c0.4,0.1,0.7,0.4,0.9,0.8c0.2,0.7,0.6,1.4,0.8,2.1c0.1,0.2,0.1,0.6-0.1,0.7C24.6,8.1,24.2,8.1,24,8
		c-1.9-0.7-3.9-1.4-5.8-2.1c-0.2-0.1-0.4-0.1-0.6-0.2c0,0.3,0,0.5,0,0.7c0.1,0,0.1,0.1,0.2,0.1c1.4,0.1,1.4,0.1,1.4,1.4
		c0,0.1,0,0.2,0,0.2c-0.1,0.9-0.1,1.6,1.1,2c1,0.4,1.5,1.4,1.5,2.5c0,5.8,0,11.6,0,17.4c0,0.9-0.7,1.6-1.6,1.6c-3.1,0-6.3,0-9.4,0
		c-0.9,0-1.6-0.6-1.6-1.6c0-1,0-2,0-3.1c0-4.4,0-8.9,0-13.3C9.1,11.8,9.7,10.3,11.8,9.7z M10.2,27.1c0,1,0,2,0,3
		c0,0.2,0.3,0.5,0.6,0.5c0.5,0.1,1,0,1.5,0c2.5,0,5,0,7.6,0c0.4,0,0.8,0,0.8-0.5c0-1,0-2.1,0-3.1C17.2,27.1,13.8,27.1,10.2,27.1z
		 M20.7,14.4c0-0.6,0-1,0-1.5c0-1.2-0.8-2.1-2-2.1c-2.1,0-4.3,0-6.4,0c-1,0-1.8,0.7-2,1.6c-0.1,0.6,0,1.3,0,2c0.3,0,0.6,0,1,0
		c0-0.7,0-1.3,0-1.9c0-0.4,0.1-0.6,0.6-0.6c0.7,0,1.3,0,2,0c0,0.4,0,0.7,0,1c-0.5,0-1,0-1.5,0c0,0.6,0,1,0,1.5
		C15.2,14.4,17.9,14.4,20.7,14.4z M15.5,23.8c1.8,0,3.4,0,5.2,0c0-1.7,0-3.4,0-5.2c-1.7,0-3.4,0-5.2,0
		C15.5,20.4,15.5,22.1,15.5,23.8z M20.7,15.5c-3.5,0-7,0-10.4,0c0,0.7,0,1.3,0,2c3.5,0,6.9,0,10.4,0C20.7,16.9,20.7,16.2,20.7,15.5z
		 M14.4,18.7c-0.7,0-1.4,0-2.1,0c0,0.7,0,1.3,0,2c-0.4,0-0.7,0-1.1,0c0-0.7,0-1.3,0-2c-0.4,0-0.7,0-1,0c0,1.8,0,3.5,0,5.2
		c1.4,0,2.8,0,4.1,0C14.4,22.1,14.4,20.4,14.4,18.7z M7.1,1.4c0,1.4,0,2.7,0,4c2.1-0.3,4.1-0.6,6.2-0.9c0-0.7,0-1.3,0-2
		c0-0.1-0.2-0.3-0.3-0.3C11.1,2,9.1,1.7,7.1,1.4z M12.9,7.6c0,0.7,0,1.4,0,2c1.7,0,3.4,0,5.1,0c0-0.7,0-1.4,0-2
		C16.3,7.6,14.6,7.6,12.9,7.6z M14.5,1.3c0,1.8,0,3.5,0,5.2c0.7,0,1.3,0,2,0c0-1.7,0-3.4,0-5.2C15.8,1.3,15.2,1.3,14.5,1.3z
		 M20.7,25c-3.5,0-7,0-10.4,0c0,0.4,0,0.6,0,0.9c3.5,0,6.9,0,10.4,0C20.7,25.6,20.7,25.3,20.7,25z M17.6,2.3c2.5,0,4.9,0,7.3,0
		c0-0.3,0-0.6,0-0.9c-2.4,0-4.8,0-7.3,0C17.6,1.7,17.6,2,17.6,2.3z M23.4,6.7C23.2,5.7,22.8,5.3,22,5c-1.5-0.4-2.9-0.9-4.3-1.4
		c-0.1,0-0.1,0.1-0.2,0.1c0.1,0.3,0.2,0.8,0.4,0.9C19.7,5.4,21.5,6,23.4,6.7z"/>
	<path d="M16.5,22.8c0-0.3,0-0.6,0-0.9c1,0,2.1,0,3.1,0c0,0.3,0,0.6,0,0.9C18.6,22.8,17.6,22.8,16.5,22.8z"/>
	<path d="M16.5,20.7c0-0.4,0-0.6,0-1c0.7,0,1.3,0,2,0c0,0.3,0,0.6,0,1C17.9,20.7,17.2,20.7,16.5,20.7z"/>
	<path d="M11.3,22.8c0-0.3,0-0.6,0-1c0.3,0,0.6,0,1,0c0,0.3,0,0.6,0,1C12,22.8,11.7,22.8,11.3,22.8z"/>
	<path d="M8.2,2.9c0.3,0,0.6,0,1,0c0,0.4,0,0.7,0,1c-0.3,0-0.6,0-1,0C8.2,3.6,8.2,3.3,8.2,2.9z"/>
</g>
</svg>
