<?xml version="1.0" encoding="utf-8"?>
<!-- Generator: Adobe Illustrator 24.3.0, SVG Export Plug-In . SVG Version: 6.00 Build 0)  -->
<svg version="1.1" id="Layer_1" xmlns="http://www.w3.org/2000/svg" xmlns:xlink="http://www.w3.org/1999/xlink" x="0px" y="0px"
	 viewBox="0 0 32 32" style="enable-background:new 0 0 32 32;" xml:space="preserve">
<g>
	<path d="M3.6,19.8c0-1,0-1.9,0-2.8c0-0.6,0.3-0.7,0.8-0.7c7.8,0,15.5,0,23.3,0c0.5,0,0.8,0.2,0.8,0.8c0,0.9,0,1.8,0,2.7
		c0.5,0,0.9,0,1.3,0c0.6-0.1,1.1-0.6,1.1-1.2c0-3.3,0-6.6,0-9.9c0-0.8-0.6-1.3-1.5-1.3c-5.4,0-10.8,0-16.2,0c-1.6,0-3.1,0-4.7,0
		C8,7.4,7.3,7.6,7.3,6.9c0-0.7,0.7-0.5,1.1-0.5c5.2,0,10.4,0,15.6,0c1.7,0,3.4,0,5.2,0c1.7,0,2.5,0.9,2.5,2.6c0,3.1,0,6.2,0,9.3
		c0,1.5-0.9,2.4-2.4,2.4c-6.6,0-13.3,0-19.9,0c-0.1,0-0.3,0-0.4,0c-0.2-0.1-0.4-0.3-0.4-0.4c0-0.2,0.2-0.4,0.4-0.5
		c0.1-0.1,0.4,0,0.5,0c5.7,0,11.4,0,17,0c0.2,0,0.5,0,0.8,0c0-0.3,0-0.5,0-0.8c-0.8,0-1.6,0-2.4,0c-0.3,0-0.7,0-0.7-0.4
		c0-0.4,0.4-0.5,0.7-0.5c0.8,0,1.6,0,2.5,0c0-0.3,0-0.5,0-0.8c-7.7,0-15.3,0-22.9,0c0,0.2,0,0.5,0,0.8c0.3,0,0.5,0,0.7,0
		c5.6,0,11.3,0,16.9,0c0.2,0,0.4-0.1,0.5,0c0.2,0.1,0.4,0.3,0.6,0.4c-0.2,0.2-0.4,0.3-0.6,0.5c-0.1,0.1-0.3,0-0.5,0
		c-5.6,0-11.3,0-16.9,0c-0.2,0-0.5,0-0.8,0c0,0.3,0,0.5,0,0.8c0.8,0,1.6,0,2.5,0c0.4,0,0.7,0,0.7,0.5c0,0.4-0.4,0.4-0.7,0.4
		c-1.5,0-3,0-4.4,0c-1.4,0-2.3-0.9-2.3-2.4c0-3.2,0-6.3,0-9.5c0-1.5,0.9-2.4,2.4-2.4c1,0,2,0,3,0c0.4,0,0.7,0,0.7,0.5
		c0,0.4-0.4,0.5-0.7,0.5c-1,0-2,0-3,0c-1,0-1.5,0.5-1.5,1.5c0,3.1,0,6.2,0,9.3c0,1.1,0.5,1.5,1.5,1.5C3,19.8,3.2,19.8,3.6,19.8z"/>
	<path d="M20.1,10.2c-1.4,0-2.7,0-4.1,0c-0.4,0-0.7,0-0.7-0.5c0-0.4,0.4-0.5,0.7-0.5c2.7,0,5.5,0,8.2,0c0.3,0,0.7,0,0.7,0.5
		c0,0.5-0.4,0.5-0.7,0.5C22.8,10.2,21.5,10.2,20.1,10.2z"/>
	<path d="M9.4,22.4c-0.1,1.3-0.7,2.3-1.6,3c-0.2,0.1-0.5,0-0.7,0c0-0.2,0-0.6,0.2-0.7c0.7-0.6,1.1-1.3,1.2-2.2
		c0-0.2,0.3-0.3,0.5-0.5C9.1,22.2,9.3,22.3,9.4,22.4z"/>
	<path d="M22.6,22.5c0.1-0.1,0.2-0.4,0.4-0.5c0.4-0.1,0.5,0.2,0.5,0.6c0.1,0.8,0.5,1.5,1.1,2c0.3,0.2,0.5,0.5,0.2,0.8
		c-0.3,0.3-0.6,0.1-0.8-0.1C23.2,24.6,22.7,23.7,22.6,22.5z"/>
	<path d="M15.7,23.7c0-0.4-0.1-0.8,0-1.2c0-0.2,0.3-0.3,0.5-0.5c0.1,0.2,0.4,0.3,0.4,0.5c0,0.9,0,1.7,0,2.6c0,0.2-0.3,0.3-0.4,0.5
		c-0.2-0.2-0.4-0.3-0.5-0.5C15.6,24.6,15.7,24.2,15.7,23.7z"/>
	<path d="M12.7,23.8c0,0.4,0,0.9,0,1.3c0,0.2-0.3,0.3-0.4,0.5c-0.2-0.2-0.4-0.3-0.4-0.5c0-0.9,0-1.8,0-2.6c0-0.2,0.3-0.3,0.4-0.5
		c0.1,0.1,0.4,0.3,0.4,0.4C12.7,22.9,12.7,23.3,12.7,23.8C12.7,23.8,12.7,23.8,12.7,23.8z"/>
	<path d="M19.3,23.8c0-0.4,0-0.9,0-1.3c0-0.2,0.3-0.3,0.4-0.5c0.2,0.2,0.4,0.3,0.4,0.5c0,0.9,0,1.8,0,2.6c0,0.2-0.3,0.3-0.5,0.5
		c-0.1-0.1-0.4-0.3-0.4-0.4C19.3,24.7,19.3,24.2,19.3,23.8C19.3,23.8,19.3,23.8,19.3,23.8z"/>
	<circle cx="27.4" cy="9.8" r="1"/>
</g>
</svg>
