<?xml version="1.0" encoding="utf-8"?>
<!-- Generator: Adobe Illustrator 24.3.0, SVG Export Plug-In . SVG Version: 6.00 Build 0)  -->
<svg version="1.1" id="Layer_1" xmlns="http://www.w3.org/2000/svg" xmlns:xlink="http://www.w3.org/1999/xlink" x="0px" y="0px"
	 viewBox="0 0 32 32" style="enable-background:new 0 0 32 32;" xml:space="preserve">
<g>
	<g>
		<path d="M8.4,26c0,0.4,0,0.8,0,1.2c0,0.7-0.3,1-1,1c-1.2,0-2.4,0-3.6,0c-0.6,0-0.9-0.3-1-1c0-0.4,0-0.8,0-1.2c-0.5,0-0.9,0-1.3,0
			c-0.8,0-1.2-0.4-1.2-1.2c0-1.8,0-3.7,0-5.5c0-4.6,0-9.2,0-13.9c0-1.1,0.3-1.5,1.4-1.5c9.5,0,19.1,0,28.6,0c1.1,0,1.4,0.4,1.4,1.5
			c0,6.4,0,12.8,0,19.2c0,1.1-0.4,1.4-1.4,1.4c-0.3,0-0.7,0-1.1,0c0,0.5,0,0.9,0,1.2c0,0.7-0.3,1-1,1c-1.2,0-2.5,0-3.7,0
			c-0.6,0-0.9-0.3-0.9-0.9c0-0.4,0-0.8,0-1.2C18.6,26,13.5,26,8.4,26z M16,25.2c4.7,0,9.4,0,14.1,0c0.9,0,0.9,0,0.9-0.9
			c0-6.3,0-12.5,0-18.8c0-0.9,0-0.9-0.9-0.9c-9.4,0-18.9,0-28.3,0C1,4.6,1,4.6,1,5.4C1,11.7,1,18,1,24.3c0,0.8,0,0.8,0.8,0.8
			C6.6,25.2,11.3,25.2,16,25.2z M3.6,27.3c1.4,0,2.7,0,4,0c0-0.5,0-0.9,0-1.4c-1.4,0-2.7,0-4,0C3.6,26.4,3.6,26.8,3.6,27.3z
			 M24.4,27.3c1.4,0,2.7,0,4,0c0-0.5,0-0.9,0-1.4c-1.4,0-2.7,0-4,0C24.4,26.4,24.4,26.9,24.4,27.3z"/>
		<path d="M24.9,21.3c-0.8,0-1.5,0-2.3,0c-0.5,0-0.7-0.2-0.7-0.7c0-1.4,0-2.8,0-4.2c0-0.5,0.3-0.7,0.8-0.7c1.5,0,3.1,0,4.6,0
			c0.5,0,0.8,0.2,0.8,0.7c0,1.4,0,2.8,0,4.2c0,0.5-0.2,0.7-0.7,0.7C26.5,21.3,25.7,21.3,24.9,21.3z M22.6,20.5c1.6,0,3.1,0,4.6,0
			c0-1.4,0-2.7,0-4.1c-1.5,0-3,0-4.6,0C22.6,17.8,22.6,19.2,22.6,20.5z"/>
		<path d="M24.9,8.8c-1.1,0-2.2,0-3.2,0c-0.2,0-0.4-0.2-0.6-0.4c0.2-0.1,0.4-0.3,0.6-0.3c2.2,0,4.4,0,6.5,0c0.2,0,0.4,0.2,0.6,0.4
			c-0.2,0.1-0.4,0.3-0.6,0.3C27.1,8.8,26,8.8,24.9,8.8z"/>
		<path d="M24.9,11c-1.1,0-2.2,0-3.2,0c-0.2,0-0.4-0.2-0.6-0.3c0.2-0.1,0.4-0.4,0.6-0.4c2.2,0,4.3,0,6.5,0c0.2,0,0.4,0.2,0.6,0.3
			c-0.2,0.1-0.4,0.4-0.6,0.4C27.1,11,26,11,24.9,11z"/>
		<path d="M24.9,12.5c1.1,0,2.2,0,3.2,0c0.2,0,0.4,0.2,0.6,0.4c-0.2,0.1-0.4,0.3-0.6,0.3c-2.2,0-4.4,0-6.5,0c-0.2,0-0.4-0.2-0.5-0.3
			c0.2-0.1,0.4-0.3,0.5-0.4C22.7,12.5,23.8,12.5,24.9,12.5z"/>
	</g>
	<path d="M2.3,15.2c0-4.6,3.8-8.4,8.4-8.4c4.7,0,8.4,3.8,8.4,8.5c0,4.6-3.8,8.4-8.4,8.4C6,23.6,2.3,19.8,2.3,15.2z M18.2,15.2
		c0-4.2-3.4-7.5-7.5-7.5c-4.2,0-7.5,3.4-7.5,7.6c0,4.1,3.4,7.5,7.5,7.5C14.8,22.7,18.2,19.3,18.2,15.2z"/>
	<path d="M4,14.6c0-0.9,0.4-1.6,1.2-1.9c0.8-0.4,1.5-0.2,2.2,0.4c0.3,0.3,0.7,0.5,1.1,0.7c0.1,0.1,0.3,0,0.4-0.1
		c0.1-0.1,0.2-0.3,0.1-0.5c-0.1-0.4-0.3-0.7-0.5-1.1c-0.4-1-0.2-1.9,0.4-2.6c0.7-0.8,1.6-1.1,2.6-0.9c1.5,0.3,2.2,2.1,1.2,3.3
		c-0.3,0.3-0.5,0.7-0.8,1.1c-0.1,0.1-0.1,0.5,0,0.6c0.1,0.1,0.4,0.1,0.6,0.1c0.4-0.1,0.7-0.3,1.1-0.4c1-0.3,1.9-0.2,2.6,0.5
		c0.8,0.7,1.1,1.6,0.9,2.6c-0.3,1.5-2.1,2.1-3.3,1.1c-0.3-0.3-0.7-0.5-1.1-0.8c-0.1-0.1-0.4,0-0.5,0.1c-0.1,0.1-0.1,0.3-0.1,0.5
		c0.1,0.4,0.3,0.7,0.5,1.1c0.3,1,0.2,1.9-0.5,2.6c-0.7,0.8-1.6,1.1-2.6,0.9c-1.5-0.3-2.1-2.1-1.2-3.3c0.3-0.3,0.5-0.7,0.7-1.1
		c0.1-0.1,0.1-0.4,0-0.5c-0.1-0.1-0.4-0.1-0.6-0.1c-0.3,0.1-0.6,0.2-0.9,0.4C5.9,17.9,4,16.6,4,14.6z M12.8,14.5
		c0,0.3,0,0.6,0.1,0.9c0,0.1,0.1,0.3,0.2,0.3c0.5,0.4,1,0.7,1.6,1c0.7,0.5,1.6,0.1,1.8-0.7c0.3-1.3-1-2.5-2.3-2.1
		C13.7,14.1,13.3,14.3,12.8,14.5z M11.1,12.9c0.2-0.3,0.3-0.6,0.5-0.9c0.2-0.3,0.4-0.5,0.6-0.8c0.5-0.6,0.2-1.5-0.6-1.7
		c-1.2-0.4-2.5,0.8-2.2,2.1c0.1,0.5,0.4,1,0.6,1.5C10.4,13,10.7,13,11.1,12.9z M8.5,15.9c0-0.4,0-0.6-0.1-0.9c0-0.1-0.1-0.3-0.2-0.3
		c-0.5-0.3-1-0.7-1.5-1c-0.7-0.5-1.6-0.2-1.8,0.6c-0.3,1.3,0.9,2.5,2.2,2.2C7.6,16.3,8.1,16.1,8.5,15.9z M10.4,17.4
		c-0.4,0.6-0.8,1.2-1.2,1.7c-0.5,0.7-0.2,1.6,0.6,1.8c1.3,0.3,2.5-0.9,2.1-2.2c-0.1-0.5-0.4-0.9-0.5-1.4
		C11,17.4,10.6,17.4,10.4,17.4z M10.7,16.5c0.7,0,1.3-0.6,1.3-1.3c0-0.7-0.6-1.3-1.4-1.3c-0.7,0-1.3,0.6-1.3,1.3
		C9.4,15.9,10,16.5,10.7,16.5z"/>
</g>
</svg>
