<?xml version="1.0" encoding="utf-8"?>
<!-- Generator: Adobe Illustrator 24.3.0, SVG Export Plug-In . SVG Version: 6.00 Build 0)  -->
<svg version="1.1" id="Layer_1" xmlns="http://www.w3.org/2000/svg" xmlns:xlink="http://www.w3.org/1999/xlink" x="0px" y="0px"
	 viewBox="0 0 32 32" style="enable-background:new 0 0 32 32;" xml:space="preserve">
<g>
	<path d="M15.9,31.7c-2.6,0-5.2,0-7.7,0c-4.5,0-7.9-3.4-7.9-7.9c0-5.2,0-10.4,0-15.6c0-4.5,3.4-7.9,7.9-7.9c5.2,0,10.5,0,15.7,0
		c4.5,0,7.9,3.4,7.9,7.9c0,5.2,0,10.4,0,15.6c0,4.5-3.4,7.9-7.9,7.9C21.2,31.7,18.6,31.7,15.9,31.7z M16,28.6c2.6,0,5.2,0,7.7,0
		c3,0,4.9-1.9,4.9-4.9c0-5.1,0-10.2,0-15.3c0-0.4,0-0.9-0.1-1.3c-0.5-2.3-2.3-3.7-4.7-3.7c-5.1,0-10.2,0-15.3,0c-3.1,0-5,1.9-5,5
		c0,5.1,0,10.1,0,15.2c0,3.1,1.9,5,5,5C10.9,28.6,13.4,28.6,16,28.6z"/>
	<path d="M16,23.9c-4.4,0-7.9-3.5-7.9-7.9c0-4.4,3.5-7.9,7.9-7.8c4.4,0,7.8,3.5,7.8,7.9C23.9,20.4,20.4,23.9,16,23.9z M20.7,16
		c0-2.7-2-4.7-4.7-4.7c-2.7,0-4.7,2-4.7,4.7c0,2.7,2,4.7,4.7,4.7C18.7,20.7,20.7,18.7,20.7,16z"/>
	<path d="M23.9,6.6c0.8,0,1.6,0.7,1.6,1.6c0,0.9-0.8,1.6-1.6,1.6c-0.8,0-1.6-0.8-1.5-1.6C22.3,7.3,23.1,6.5,23.9,6.6z"/>
</g>
</svg>
