<?xml version="1.0" encoding="utf-8"?>
<!-- Generator: Adobe Illustrator 24.3.0, SVG Export Plug-In . SVG Version: 6.00 Build 0)  -->
<svg version="1.1" id="Layer_1" xmlns="http://www.w3.org/2000/svg" xmlns:xlink="http://www.w3.org/1999/xlink" x="0px" y="0px"
	 viewBox="0 0 32 32" style="enable-background:new 0 0 32 32;" xml:space="preserve">
<g>
	<path d="M15.7,0.2c5.3,0.3,9.1,2.4,11.3,6.9c2.3,4.5,1.9,9-1.1,13.1c-2.7,3.6-5.5,7.1-8.3,10.6c-1,1.2-2.5,1.2-3.5,0
		c-2.7-3.4-5.4-6.7-8-10.2C0.6,13.4,4.3,2.8,13,0.6C14,0.4,15,0.4,15.7,0.2z M15.9,29.6c2.7-3.5,5.4-6.8,8.1-10.2
		c0.2-0.3,0.5-0.6,0.7-1c2.4-3.6,2.2-8.4-0.4-11.9C21.6,3,17,1.6,12.8,2.9C6,5,3.4,13.7,7.9,19.5c1.5,1.9,3,3.8,4.5,5.8
		C13.6,26.7,14.7,28.1,15.9,29.6z"/>
	<path d="M10.2,12.4c0-3.1,2.6-5.7,5.7-5.7c3.1,0,5.7,2.6,5.7,5.8c0,3.1-2.6,5.7-5.7,5.7C12.7,18.2,10.2,15.6,10.2,12.4z M19.5,12.5
		c0-2-1.6-3.6-3.6-3.6c-2,0-3.6,1.6-3.6,3.6c0,2,1.6,3.6,3.6,3.6C17.9,16.1,19.5,14.5,19.5,12.5z"/>
</g>
</svg>
