<?xml version="1.0" encoding="utf-8"?>
<!-- Generator: Adobe Illustrator 24.3.0, SVG Export Plug-In . SVG Version: 6.00 Build 0)  -->
<svg version="1.0" id="Layer_1" xmlns="http://www.w3.org/2000/svg" xmlns:xlink="http://www.w3.org/1999/xlink" x="0px" y="0px"
	 viewBox="0 0 32 32" style="enable-background:new 0 0 32 32;" xml:space="preserve">
<path d="M23.8,31.8c-1.9-0.2-3.6-0.7-5.2-1.5C10.3,26.3,4.3,20.2,1,11.6c-0.3-0.9-0.5-1.9-0.7-2.9c-0.1-0.4,0-1,0.2-1.4
	C1.9,5,3.6,2.8,5.8,1c1.4-1.1,2.4-1,3.4,0.5c1.1,1.7,2.2,3.4,3.2,5.2c0.3,0.5,0.5,1,0.7,1.6c0.4,0.9,0.2,1.6-0.5,2.3
	c-0.6,0.5-1.2,1-1.7,1.5c-0.2,0.2-0.3,0.5-0.2,0.7c1.6,4.1,4.4,6.9,8.5,8.5c0.4,0.1,0.6,0.1,0.8-0.2c0.4-0.5,0.9-1,1.3-1.5
	c0.8-0.9,1.7-1.1,2.8-0.6c0.8,0.4,1.7,0.8,2.5,1.3c1.4,0.8,2.7,1.7,4,2.6c1.4,1,1.6,2,0.5,3.3c-1.8,2.2-4,3.9-6.4,5.3
	C24.3,31.6,24,31.7,23.8,31.8z"/>
</svg>
