<?xml version="1.0" encoding="utf-8"?>
<!-- Generator: Adobe Illustrator 24.3.0, SVG Export Plug-In . SVG Version: 6.00 Build 0)  -->
<svg version="1.1" id="Layer_1" xmlns="http://www.w3.org/2000/svg" xmlns:xlink="http://www.w3.org/1999/xlink" x="0px" y="0px"
	 viewBox="0 0 32 32" style="enable-background:new 0 0 32 32;" xml:space="preserve">
<g>
	<path d="M5.7,0.3c0.9,0,1.8,0,2.7,0c1.6,0,2.6,1,2.7,2.6c0.1,1.8,0.3,3.6,0.8,5.3c0.3,1.1,0.2,2-0.6,2.9c-0.8,1-1.6,2-2.3,3.1
		c-0.1,0.2-0.1,0.5,0,0.7c1.9,3.6,4.6,6.3,8.2,8.2c0.2,0.1,0.5,0.1,0.7-0.1c1.1-0.8,2.2-1.6,3.2-2.4c0.7-0.6,1.5-0.8,2.4-0.5
		c1.9,0.6,3.7,0.9,5.7,0.9c1.5,0,2.5,1.1,2.5,2.6c0,1.9,0,3.7,0,5.6c0,1.6-1.1,2.7-2.7,2.6c-8-0.1-14.9-3-20.5-8.7
		c-4.4-4.5-7-9.9-8-16.1C0.4,5.6,0.3,4.2,0.3,2.8c0-1.5,1.1-2.6,2.5-2.6C3.8,0.2,4.7,0.3,5.7,0.3z M5.7,2C4.8,2,3.9,2,3.1,2
		C2.3,2,1.9,2.3,2,3.1C2.1,4.7,2.2,6.4,2.5,8C5,20.7,16.1,29.9,28.9,30c0.8,0,1.1-0.3,1.1-1.1c0-1.7,0-3.5,0-5.2c0-0.8-0.3-1-1-1.1
		c-1.9,0-3.8-0.3-5.7-0.9c-0.5-0.1-0.8-0.1-1.2,0.2c-1.2,1-2.5,1.9-3.7,2.8c-0.4,0.3-0.9,0.4-1.4,0.1c-4.4-2.2-7.7-5.5-9.9-9.9
		c-0.3-0.5-0.3-1,0.1-1.5c1-1.2,1.9-2.5,2.8-3.7c0.2-0.3,0.3-0.7,0.2-1.1C9.7,6.9,9.3,5,9.3,3c0-0.7-0.3-1-1-1C7.5,2,6.6,2,5.7,2z"
		/>
	<path d="M19,11.6c0.1-0.1,0.2-0.2,0.3-0.3c3-2.6,6.1-5.2,9.1-7.8c0.1-0.1,0.2-0.2,0.4-0.3c0.3-0.2,0.6-0.1,0.9,0.2
		c0.2,0.3,0.3,0.6,0.1,0.9c-0.1,0.1-0.2,0.2-0.3,0.3c-3,2.6-6.1,5.2-9.1,7.9c-0.1,0.1-0.2,0.1-0.3,0.3c0.2,0,0.3,0,0.4,0
		c1.6,0.1,3.2,0.2,4.8,0.4c0.2,0,0.4,0.1,0.6,0.2c0.3,0.2,0.3,0.5,0.2,0.8c-0.1,0.3-0.3,0.5-0.6,0.5c-0.1,0-0.2,0-0.3,0
		c-2.2-0.2-4.5-0.3-6.7-0.5c-0.7-0.1-0.9-0.3-0.9-1c0.2-2.3,0.3-4.5,0.5-6.8c0-0.5,0.3-0.7,0.6-0.8c0.5-0.1,0.9,0.3,0.8,0.8
		C19.2,7.8,19,9.4,18.9,11c0,0.2-0.1,0.4-0.1,0.6C18.9,11.5,18.9,11.5,19,11.6z"/>
</g>
</svg>
