<?xml version="1.0" encoding="utf-8"?>
<!-- Generator: Adobe Illustrator 24.3.0, SVG Export Plug-In . SVG Version: 6.00 Build 0)  -->
<svg version="1.1" id="Layer_1" xmlns="http://www.w3.org/2000/svg" xmlns:xlink="http://www.w3.org/1999/xlink" x="0px" y="0px"
	 viewBox="0 0 32 32" style="enable-background:new 0 0 32 32;" xml:space="preserve">
<style type="text/css">
	.st0{fill:#FFFFFF;}
</style>
<g>
	<path d="M16,31.7c-8.7,0-15.8-7-15.8-15.7C0.2,7.3,7.3,0.3,16,0.3c8.7,0,15.8,7.1,15.8,15.7C31.7,24.7,24.7,31.7,16,31.7z
		 M12.1,16.1c0,1.9,0,3.7,0,5.6c0,0.8,0.5,1.1,1.2,0.7c2.9-1.9,5.9-3.8,8.8-5.6c0.7-0.4,0.7-0.9,0-1.4c-2.9-1.9-5.8-3.8-8.7-5.6
		c-0.2-0.2-0.7-0.3-0.9-0.1c-0.2,0.1-0.3,0.5-0.3,0.8C12.1,12.3,12.1,14.2,12.1,16.1z"/>
	<path class="st0" d="M12.1,16.1c0-1.9,0-3.8,0-5.7c0-0.3,0.1-0.7,0.3-0.8c0.2-0.1,0.6,0,0.9,0.1c2.9,1.9,5.8,3.7,8.7,5.6
		c0.7,0.4,0.7,0.9,0,1.4c-2.9,1.9-5.9,3.8-8.8,5.6c-0.7,0.4-1.2,0.2-1.2-0.7C12.1,19.8,12.1,17.9,12.1,16.1z"/>
</g>
</svg>
