<?xml version="1.0" encoding="utf-8"?>
<!-- Generator: Adobe Illustrator 24.3.0, SVG Export Plug-In . SVG Version: 6.00 Build 0)  -->
<svg version="1.1" id="Layer_1" xmlns="http://www.w3.org/2000/svg" xmlns:xlink="http://www.w3.org/1999/xlink" x="0px" y="0px"
	 viewBox="0 0 32 32" style="enable-background:new 0 0 32 32;" xml:space="preserve">
<g>
	<path d="M14.5,3.9c-2-0.4-4-0.8-6.1-0.7c0,0.1-0.1,0.1-0.1,0.2c0.6,0.3,1.2,0.7,1.8,1C10.6,4.6,11,4.7,11.4,5
		c0.2,0.1,0.2,0.4,0.3,0.7C11.5,5.7,11.2,6,11,5.9C9.9,5.4,8.8,4.8,7.7,4.2C7.3,3.9,7,3.5,7.2,3c0.2-0.5,0.6-0.7,1.1-0.7
		c1.4,0,2.8,0,4.2,0.2C16.1,3.1,19.6,4,23,5.6c0.7,0.3,1.3,0.8,1.9,1.2c0.4,0.3,0.7,0.7,0.4,1.3c-0.2,0.4-1.2,0.8-1.6,0.6
		c-0.1-0.1-0.3-0.2-0.3-0.4c0-0.2,0.1-0.4,0.2-0.5c0.1-0.1,0.3-0.1,0.7-0.2c-0.6-0.4-1.1-0.7-1.6-1c-0.5,0.7-0.5,1.6,0.1,2.3
		c0.6,0.7,1.6,1,2.4,0.6c0.9-0.4,1.4-1.3,1.3-2.2c-0.1-0.9-0.8-1.6-1.7-1.8c-0.1,0-0.3,0-0.4-0.1c-0.2-0.1-0.4-0.4-0.4-0.5
		c0-0.2,0.3-0.5,0.5-0.5c0.3,0,0.7,0.1,1,0.2c1.6,0.6,2.5,2.4,1.9,4c-0.6,1.6-2.4,2.5-4,2c-1.6-0.6-2.5-2.3-2-4
		c0-0.2,0.1-0.3,0.2-0.6c-1.2-0.4-2.5-0.7-3.6-1.3c-1.5-0.7-2.5-0.3-3.6,0.9c-4,4.2-8.1,8.2-12.2,12.3c-1.1,1.1-1.1,1.8,0,2.9
		c3,3,6,6,9,9c1,1,1.8,1,2.8,0c5-5,10-10.1,15-15c1.1-1.1,1.7-2.4,1.7-4c-0.1-2.5,0-5.1,0-7.6c0-1.4-0.5-1.9-1.9-1.9
		c-2.6,0-5.2,0-7.8,0c-1.3,0-2.5,0.3-3.4,1.3c-0.3,0.3-0.6,0.4-0.9,0.1c-0.3-0.3-0.1-0.6,0.2-0.8c1-1,2.2-1.6,3.6-1.6
		c2.9,0,5.7,0,8.6,0c1.5,0,2.6,1.1,2.7,2.6c0,2.9,0,5.9,0,8.8c0,1.6-0.8,2.8-1.9,3.9c-4.1,4.1-8.2,8.2-12.3,12.4
		c-1,1-1.9,1.9-2.9,2.9c-1.3,1.2-2.8,1.2-4,0c-3.1-3.1-6.2-6.2-9.3-9.3c-1.3-1.3-1.3-2.8,0-4.1c4.3-4.3,8.6-8.5,12.8-12.8
		c0.2-0.2,0.4-0.3,0.6-0.4C14.6,4.1,14.6,4,14.5,3.9z"/>
	<path d="M11.8,22.3c-0.2,0-0.5-0.1-0.7-0.1c-0.4-0.1-0.8-0.4-1.2,0c-0.1,0.1-0.5,0-0.6-0.1c-0.1-0.1-0.1-0.5,0-0.6
		c0.3-0.3,0.2-0.5,0.1-0.9c-0.3-0.7-0.2-1.4,0.1-2.1c0.2-0.3,0.4-0.7,0.8-0.4c0.4,0.2,0.3,0.5,0.2,0.9c-0.3,0.6-0.3,1.2,0.2,1.8
		c0.4,0.5,1,0.7,1.6,0.5c0.8-0.2,1.3-1,1.1-1.9c-0.1-0.5-0.4-0.9-0.6-1.3c-1-2,0.2-4.1,2.3-4.1c0.2,0,0.5,0,0.7,0.1
		c0.4,0.1,0.8,0.4,1.2-0.1c0.1-0.1,0.4,0,0.5,0.1c0.1,0.1,0.2,0.5,0.1,0.6c-0.3,0.3-0.2,0.6-0.1,1c0.3,0.9,0.2,1.8-0.4,2.5
		c-0.2,0.3-0.5,0.5-0.8,0.2c-0.3-0.3-0.2-0.6,0-0.9c0.4-0.5,0.5-1.1,0.2-1.7C16.1,15.3,15.6,15,15,15c-1.1,0-1.9,1-1.5,2.1
		c0.2,0.5,0.4,0.9,0.6,1.3c0.7,1.7,0,3.3-1.6,3.8C12.3,22.3,12,22.3,11.8,22.3z"/>
	<path d="M19.5,31.7c-1.2,0-1.9-0.6-2.7-1.2c-0.1-0.1-0.1-0.5,0-0.6c0.1-0.1,0.4-0.2,0.6-0.1c0.3,0.1,0.6,0.4,0.9,0.6
		c1,0.6,1.9,0.5,2.5-0.6c1.9-3.2,3.8-6.5,5.7-9.7c0.1-0.1,0.1-0.3,0.3-0.4c0.2-0.1,0.5-0.2,0.7-0.1c0.1,0,0.2,0.4,0.2,0.6
		c0,0.1-0.1,0.2-0.2,0.3c-1.9,3.3-3.9,6.6-5.8,9.9C21.2,31.2,20.5,31.7,19.5,31.7z"/>
</g>
</svg>
