<?xml version="1.0" encoding="utf-8"?>
<!-- Generator: Adobe Illustrator 24.3.0, SVG Export Plug-In . SVG Version: 6.00 Build 0)  -->
<svg version="1.1" id="Layer_1" xmlns="http://www.w3.org/2000/svg" xmlns:xlink="http://www.w3.org/1999/xlink" x="0px" y="0px"
	 viewBox="0 0 32 32" style="enable-background:new 0 0 32 32;" xml:space="preserve">
<g>
	<path d="M1.5,14.7C1,14.6,0.3,14.8,0.3,14c0-0.8,0.7-0.6,1.3-0.8c0-0.4,0-0.8,0-1.2c0-0.5,0.2-0.7,0.7-0.7c0.2,0,0.4,0,0.6,0
		c0.8,0.1,1.4,0,1.9-0.9c0.7-1.2,2.4-1.4,3.6-0.6c0.2,0.1,0.3,0.2,0.4,0.3c1.6-1.1,2.5-1.1,3.8-0.1c0.8-0.3,1.5-0.6,2.1-0.6
		c0.7,0,1.4,0.4,2.2,0.6c1.3-1,2.2-1,3.8,0.1c1.5-1.1,2.4-1.1,3.9,0c1.4-1,2.5-1.1,3.5-0.3c1.2,0.8,1.2,2.1,1.1,3.4
		c0.4,0,0.8,0,1.2,0c0-0.2,0-0.4,0-0.7c0-1.4,0-2.9,0-4.3c0-0.4,0.1-0.9,0.6-0.9c0.6,0,0.7,0.4,0.7,0.9c0,1.8,0,3.6,0,5.4
		c0,0.7-0.2,0.9-0.9,0.9c-0.5,0-1.1,0-1.7,0c0,0.3,0,0.5,0,0.8c0,4.4,0,8.9,0,13.3c0,1.6-0.8,2.6-2.1,2.9c-0.9,0.2-1.6,0-2.5-0.8
		c-1.8,1.1-2.4,1.1-4,0c-1.5,1.1-2.5,1.1-3.9,0c-1.6,1.1-2.5,1.1-3.9,0c-1.7,1.1-2.6,1.1-4,0c-0.1,0.1-0.2,0.1-0.3,0.2
		c-0.8,0.7-1.8,0.9-2.8,0.4c-1-0.5-1.5-1.3-1.6-2.4c0-1,0-2,0-3c0-2.9,0-5.8,0-8.7c0-0.2,0-0.4,0-0.7c-0.6,0-1.1,0-1.7,0
		c-0.7,0-0.9-0.2-0.9-0.9C1.5,15.4,1.5,15,1.5,14.7z M5.5,20.5c0,2.8,0,5.7,0,8.5c0,0.8,0.5,1.3,1.3,1.4c0.7,0,1.3-0.5,1.3-1.3
		c0-5.7,0-11.4,0-17.2c0-0.7-0.6-1.3-1.3-1.2c-0.7,0-1.2,0.5-1.3,1.3c0,0.2,0,0.4,0,0.6C5.5,15.2,5.5,17.8,5.5,20.5z M9.4,20.5
		c0,1.6,0,3.1,0,4.7c0,1.3,0,2.6,0,3.9c0,0.9,0.7,1.4,1.5,1.3c0.7-0.1,1.1-0.7,1.1-1.5c0-5.5,0-11,0-16.5c0-0.1,0-0.3,0-0.4
		c-0.1-0.9-1.1-1.4-1.9-1c-0.5,0.3-0.7,0.8-0.7,1.3C9.4,15,9.4,17.7,9.4,20.5z M13.4,20.5c0,1,0,2,0,3c0,1.8,0,3.6,0,5.4
		c0,0.9,0.5,1.4,1.3,1.4c0.8,0,1.3-0.6,1.3-1.5c0-4.1,0-8.1,0-12.2c0-1.5,0-3,0-4.6c0-0.6-0.3-1.1-0.9-1.3c-0.9-0.3-1.7,0.3-1.7,1.4
		C13.4,15,13.4,17.7,13.4,20.5z M19.9,20.5c0-2.1,0-4.3,0-6.4c0-0.7,0-1.4,0-2.2c0-0.7-0.5-1.2-1.1-1.3c-0.6-0.1-1.2,0.2-1.4,0.8
		c-0.1,0.3-0.1,0.6-0.1,0.8c0,5.5,0,10.9,0,16.4c0,0.2,0,0.4,0,0.6c0.1,0.6,0.6,1,1.2,1.1c0.8,0.1,1.4-0.5,1.4-1.5
		C19.9,26.1,19.9,23.3,19.9,20.5z M21.3,20.5c0,2.8,0,5.6,0,8.4c0,1,0.7,1.6,1.6,1.5c0.6-0.1,1-0.7,1-1.5c0-3.4,0-6.9,0-10.3
		c0-2.1,0-4.2,0-6.3c0-0.8-0.3-1.3-1-1.4c-0.9-0.2-1.6,0.4-1.6,1.4C21.2,14.9,21.3,17.7,21.3,20.5z M25.2,20.5c0,1.7,0,3.4,0,5
		c0,1.2,0,2.3,0,3.5c0,0.9,0.7,1.4,1.5,1.3c0.7-0.1,1.1-0.7,1.1-1.5c0-5.5,0-11,0-16.5c0-0.1,0-0.3,0-0.4c-0.1-0.9-1.1-1.4-1.9-1
		c-0.5,0.3-0.7,0.8-0.7,1.3C25.2,15,25.2,17.7,25.2,20.5z M2.9,12.7c0,0.9,0,1.7,0,2.6c0.4,0,0.8,0,1.2,0c0-0.9,0-1.7,0-2.6
		C3.7,12.7,3.3,12.7,2.9,12.7z"/>
	<path d="M18.1,2.6c-0.3,0.6-0.4,1.3-0.8,1.8c-0.6,0.8-0.7,1.6-0.2,2.5c0.2,0.4,0.4,0.8-0.1,1.1c-0.5,0.3-0.8-0.1-1-0.5
		c-0.8-1.3-0.7-2.5,0.2-3.8c0.5-0.7,0.6-1.4,0.2-2.1c-0.1-0.1-0.2-0.3-0.2-0.4c-0.2-0.4-0.1-0.7,0.3-0.9c0.2-0.1,0.7,0,0.8,0.2
		C17.5,1.2,17.8,1.9,18.1,2.6z"/>
	<path d="M12.5,4.6C12.4,5,12.2,5.4,12,5.7c-0.3,0.4-0.4,0.8-0.1,1.2c0.3,0.4,0.3,0.8-0.2,1c-0.5,0.3-0.8,0-1-0.4
		c-0.5-0.9-0.5-1.7,0.2-2.5c0.3-0.4,0.3-0.7,0.1-1.1c-0.2-0.4-0.3-0.8,0.2-1c0.5-0.3,0.8,0,1,0.4C12.2,3.7,12.4,4.1,12.5,4.6z"/>
	<path d="M23,4.6c-0.2,0.4-0.3,0.8-0.6,1.2c-0.3,0.4-0.4,0.7-0.1,1.2c0.2,0.4,0.3,0.8-0.2,1.1c-0.5,0.3-0.8-0.1-1-0.5
		c-0.5-0.8-0.5-1.7,0.2-2.4c0.3-0.3,0.3-0.7,0.1-1.1c-0.3-0.4-0.3-0.8,0.2-1.1c0.5-0.3,0.8,0.1,1,0.5C22.8,3.8,22.9,4.1,23,4.6z"/>
</g>
</svg>
