<?xml version="1.0" encoding="utf-8"?>
<!-- Generator: Adobe Illustrator 24.3.0, SVG Export Plug-In . SVG Version: 6.00 Build 0)  -->
<svg version="1.1" id="Layer_1" xmlns="http://www.w3.org/2000/svg" xmlns:xlink="http://www.w3.org/1999/xlink" x="0px" y="0px"
	 viewBox="0 0 32 32" style="enable-background:new 0 0 32 32;" xml:space="preserve">
<path d="M16,0.9c0.8,0,1.3,0.5,1.6,1.2c1.1,2.5,2.2,5,3.2,7.5c0.2,0.6,0.6,0.8,1.2,0.8c2.7,0.2,5.4,0.5,8.1,0.7
	c0.8,0.1,1.4,0.4,1.6,1.2c0.2,0.8-0.1,1.4-0.6,1.9c-2.1,1.8-4.2,3.7-6.2,5.5c-0.3,0.3-0.5,0.6-0.4,1c0.6,2.7,1.2,5.4,1.8,8.1
	c0.2,0.8,0.1,1.4-0.6,1.9c-0.7,0.5-1.4,0.4-2.1,0c-2.4-1.4-4.8-2.9-7.2-4.3c-0.4-0.2-0.6-0.2-1,0c-2.3,1.4-4.7,2.8-7,4.2
	c-0.7,0.4-1.4,0.6-2.2,0.1c-0.7-0.5-0.8-1.3-0.6-2.1c0.6-2.7,1.2-5.3,1.8-8c0.1-0.4,0-0.6-0.3-0.9c-2.1-1.8-4.2-3.6-6.2-5.5
	c-0.6-0.5-1-1.1-0.7-1.9c0.3-0.8,0.9-1.1,1.7-1.2c2.6-0.2,5.2-0.5,7.8-0.7c0.7-0.1,1.1-0.3,1.3-0.9c1-2.5,2.1-4.9,3.1-7.4
	C14.7,1.4,15.2,0.9,16,0.9z"/>
</svg>
