<?xml version="1.0" encoding="utf-8"?>
<!-- Generator: Adobe Illustrator 24.3.0, SVG Export Plug-In . SVG Version: 6.00 Build 0)  -->
<svg version="1.1" id="Layer_1" xmlns="http://www.w3.org/2000/svg" xmlns:xlink="http://www.w3.org/1999/xlink" x="0px" y="0px"
	 viewBox="0 0 32 32" style="enable-background:new 0 0 32 32;" xml:space="preserve">
<g>
	<path d="M18.9,31.7c-0.9,0-1.4-0.6-1.7-1.4c-1.3-3.2-2.7-6.5-3.9-9.7c-0.4-0.9-0.9-1.5-1.9-1.9c-3.2-1.3-6.4-2.6-9.5-3.9
		c-0.9-0.3-1.6-0.8-1.6-1.8c0-1,0.7-1.4,1.5-1.7C10.9,7.8,20,4.1,29.1,0.5c0.8-0.3,1.5-0.4,2.2,0.2c0.7,0.7,0.6,1.4,0.3,2.2
		c-3.6,9.1-7.3,18.2-10.9,27.4C20.3,31.1,19.9,31.7,18.9,31.7z M18.9,30C22.3,21.4,25.7,13,29,4.5c-0.4,0.1-0.6,0.3-0.9,0.5
		c-4.3,4.2-8.6,8.5-13,12.7c-0.7,0.7-0.9,1.2-0.5,2.2C16.2,23.2,17.5,26.5,18.9,30z M2,13.1c3.6,1.5,7,2.8,10.3,4.2
		c0.5,0.2,0.9,0.2,1.3-0.3c4.6-4.5,9.2-9.1,13.8-13.6c0.2-0.1,0.3-0.3,0.6-0.7C19.2,6.3,10.7,9.6,2,13.1z"/>
</g>
</svg>
