<?xml version="1.0" encoding="utf-8"?>
<!-- Generator: Adobe Illustrator 24.3.0, SVG Export Plug-In . SVG Version: 6.00 Build 0)  -->
<svg version="1.1" id="Layer_1" xmlns="http://www.w3.org/2000/svg" xmlns:xlink="http://www.w3.org/1999/xlink" x="0px" y="0px"
	 viewBox="0 0 32 32" style="enable-background:new 0 0 32 32;" xml:space="preserve">
<g>
	<path d="M25.5,18.1c0-0.4,0-0.6,0-0.8c0-0.8-0.4-1.2-1.2-1.2c-1.8,0-3.6,0-5.3,0c-0.4,0-0.8,0-0.8-0.5c0-0.5,0.4-0.5,0.8-0.5
		c1.7,0,3.5,0,5.2,0c1.6,0,2.4,0.8,2.4,2.4c0,0.2,0,0.4,0,0.7c0.7,0,1.4,0.1,2.1,0c1.3-0.2,2.1-1.3,2.1-2.7c0-2.5,0-5,0-7.4
		c0-1,0-2,0-2.9c0-1-0.1-1-1.1-1c-0.1,0-0.3,0-0.5,0c0,1,0,2,0,3c0,0.3,0,0.7,0,1c0,1.4-0.9,2.2-2.3,2.2c-2.4,0-4.8,0-7.1,0
		c-4.8,0-9.6,0-14.4,0c-1.7,0-2.5-0.8-2.5-2.5c0-1.2,0-2.5,0-3.7C2.7,4,2.7,4,2.6,4c-1.2,0-1.3,0-1.3,1.2c0,2.7,0,5.5,0,8.2
		c0,0.2,0.1,0.4,0,0.5c-0.1,0.2-0.3,0.5-0.5,0.5c-0.2,0-0.4-0.3-0.5-0.5c-0.1-0.1,0-0.2,0-0.4c0-2.9,0-5.9,0-8.8
		c0-1.2,0.6-1.9,1.8-1.9c9.3,0,18.6,0,27.8,0c1.2,0,1.8,0.6,1.8,1.8c0,3.5,0,7.1,0,10.6c0,2.2-1.5,3.8-3.7,3.8c-2.7,0-5.4,0-8.2,0
		c-0.4,0-0.8,0-0.8-0.5c0-0.5,0.4-0.5,0.8-0.5c1.6,0,3.2,0,4.9,0C25,18.1,25.2,18.1,25.5,18.1z M4,4c0,1.5,0,2.8,0,4.2
		c0,0.5,0.3,0.9,0.9,1c0.2,0,0.4,0,0.6,0c7,0,14.1,0,21.1,0c0.1,0,0.3,0,0.4,0c0.7-0.1,1-0.4,1.1-1.1c0-1.2,0-2.5,0-3.7
		c0-0.1,0-0.3-0.1-0.4C20,4,12,4,4,4z"/>
	<path d="M18.1,20.2c0,4.9-4,8.9-8.9,8.9c-4.9,0-8.9-4-8.9-8.9c0-5,4-8.9,9-8.9C14.1,11.3,18.1,15.3,18.1,20.2z M1.3,20.2
		c0,4.3,3.4,7.8,7.7,7.9c4.4,0,7.9-3.4,8-7.8c0.1-4.3-3.5-7.9-7.8-7.9C4.9,12.3,1.4,15.8,1.3,20.2z"/>
	<path d="M25.8,27.5c0.3-0.5,0.5-1,0.8-1.4c0.5-0.6,0.5-1,0-1.6c-0.8-0.9-0.8-2,0-2.9c0.2-0.2,0.3-0.6,0.5-0.9
		c0.1-0.2,0.4-0.3,0.6-0.5c0.1,0.2,0.4,0.5,0.4,0.6c-0.1,0.5-0.3,1-0.6,1.3c-0.5,0.6-0.5,1,0,1.6c0.8,0.9,0.8,2,0,2.9
		c-0.2,0.2-0.3,0.6-0.5,0.9c-0.1,0.2-0.4,0.4-0.6,0.4C26.2,28,26.1,27.7,25.8,27.5z"/>
	<path d="M19,27.4c0.3-0.5,0.5-1,0.8-1.3c0.6-0.7,0.6-1,0-1.7c-0.8-0.9-0.8-2,0-2.9c0.2-0.2,0.3-0.6,0.5-0.9
		c0.1-0.2,0.4-0.3,0.6-0.5c0.1,0.2,0.4,0.5,0.4,0.6c-0.1,0.5-0.3,0.9-0.6,1.3c-0.5,0.7-0.6,1,0,1.6c0.9,0.9,0.8,2,0,3
		c-0.2,0.2-0.2,0.5-0.4,0.8C20,27.7,19.8,28,19.6,28C19.4,28,19.2,27.7,19,27.4z"/>
	<path d="M25.1,20.8c-0.3,0.5-0.5,1-0.8,1.4c-0.5,0.6-0.5,1,0,1.6c0.9,0.9,0.8,2,0,3c-0.2,0.2-0.2,0.5-0.4,0.8
		c-0.1,0.2-0.4,0.5-0.6,0.5c-0.4,0-0.5-0.3-0.4-0.6c0.1-0.4,0.3-0.9,0.6-1.2c0.6-0.7,0.6-1,0-1.7c-0.8-0.9-0.8-2,0-2.9
		c0.2-0.2,0.3-0.5,0.4-0.8c0.2-0.2,0.4-0.5,0.6-0.5C24.6,20.2,24.8,20.6,25.1,20.8z"/>
	<path d="M16,8.1c-3.4,0-6.7,0-10.1,0c-0.2,0-0.4,0-0.5,0C5.2,8,5,7.8,5,7.6c0-0.2,0.2-0.4,0.4-0.5C5.6,7.1,5.8,7.1,6,7.1
		c6.7,0,13.3,0,20,0c0.1,0,0.2,0,0.2,0c0.4,0,0.7,0.1,0.7,0.5c0,0.5-0.3,0.5-0.7,0.5c-0.8,0-1.6,0-2.3,0C21.3,8.1,18.7,8.1,16,8.1z"
		/>
	<path d="M16,6.1c-3.4,0-6.7,0-10.1,0c-0.2,0-0.4,0-0.5,0C5.2,5.9,5,5.7,5,5.5C5,5.4,5.2,5.1,5.4,5C5.6,5,5.8,5,6,5
		c6.7,0,13.3,0,20,0c0.1,0,0.3,0,0.4,0c0.2,0.2,0.4,0.3,0.6,0.5C26.8,5.7,26.6,6,26.4,6c-0.6,0.1-1.2,0-1.8,0
		C21.7,6.1,18.9,6.1,16,6.1z"/>
	<path d="M12.1,23.3c0.4,0.5,0.6,0.9,0.9,1.3c0.2,0.3,0.3,0.6-0.1,0.8c-0.2,0.1-0.6,0-0.8-0.2c-0.3-0.3-0.6-0.7-0.9-1.2
		c-0.1,0.6-0.2,1.1-0.3,1.7c-0.1,0.4-0.3,0.7-0.6,0.5c-0.2-0.1-0.4-0.5-0.4-0.7c0-0.6,0.1-1.3,0.3-1.9c0.2-0.6,0-1.1-0.4-1.5
		c-0.2-0.3-0.4-0.6-0.7-0.9c-0.4,0.5-0.7,1-1,1.4c-0.1,0.1-0.1,0.3-0.1,0.5c0.1,0.8,0.2,1.5,0.4,2.3c0.1,0.4,0,0.7-0.4,0.8
		c-0.5,0.1-0.6-0.2-0.7-0.6c-0.1-0.5-0.2-1-0.3-1.6c-0.3,0.5-0.6,0.8-0.9,1.2c-0.2,0.3-0.5,0.5-0.8,0.2c-0.3-0.3-0.2-0.6,0-0.9
		c0.3-0.4,0.5-0.7,0.9-1.2c-0.5,0.1-1,0.1-1.4,0.2c-0.4,0.1-0.9,0.2-1-0.4c-0.1-0.6,0.4-0.6,0.8-0.7c0.6-0.1,1.1-0.2,1.7-0.3
		c0.5,0,1-0.3,1.2-0.7c0.2-0.3,0.4-0.6,0.7-1c-0.6-0.2-1.1-0.4-1.7-0.5c-0.2,0-0.4,0-0.6,0.1c-0.7,0.3-1.4,0.7-2.1,1.1
		c-0.3,0.2-0.7,0.2-0.8-0.2c-0.1-0.2,0.1-0.6,0.3-0.7c0.4-0.3,0.9-0.5,1.5-0.8c-0.5-0.2-1-0.3-1.4-0.5c-0.4-0.1-0.6-0.3-0.5-0.7
		c0.1-0.4,0.5-0.4,0.8-0.3c0.4,0.1,0.8,0.3,1.4,0.5c-0.3-0.6-0.5-1.1-0.8-1.5c-0.2-0.3-0.2-0.7,0.2-0.8c0.2-0.1,0.6,0.1,0.7,0.3
		c0.4,0.5,0.7,1.1,0.9,1.7c0.2,0.5,0.6,0.8,1.1,1c0.4,0.1,0.7,0.2,1.1,0.3c0-0.6,0-1.2,0-1.8c0-0.2-0.2-0.4-0.3-0.5
		c-0.5-0.5-1.1-1.1-1.6-1.6c-0.3-0.3-0.4-0.5-0.1-0.9c0.3-0.3,0.6-0.2,0.9,0.1c0.3,0.3,0.7,0.7,1.2,1.2c0-0.6,0-1,0-1.4
		c0-0.4,0.1-0.7,0.5-0.7c0.4,0,0.6,0.3,0.5,0.7c0,0.4,0,0.8,0.1,1.4c0.3-0.4,0.7-0.8,1-1.1c0.2-0.1,0.6-0.2,0.8-0.1
		c0.3,0.2,0.2,0.6-0.1,0.8c-0.5,0.5-0.9,1-1.4,1.4c-0.4,0.3-0.5,0.7-0.5,1.2c0,0.4,0,0.8,0,1.3c1-0.3,2.1-0.4,2.4-1.6
		c0.1-0.5,0.4-0.9,0.7-1.4c0.2-0.3,0.4-0.6,0.8-0.4c0.4,0.2,0.3,0.5,0.1,0.8c-0.2,0.4-0.4,0.9-0.7,1.4c0.6-0.2,1-0.3,1.4-0.4
		c0.3-0.1,0.7-0.1,0.8,0.3c0.1,0.4-0.1,0.6-0.5,0.7c-0.4,0.1-0.8,0.3-1.4,0.5c0.6,0.3,1,0.5,1.5,0.8c0.3,0.2,0.5,0.4,0.4,0.8
		c-0.2,0.4-0.5,0.3-0.8,0.2c-0.3-0.2-0.7-0.4-1-0.5c-1.5-0.8-1.5-0.8-3.2-0.1c0.6,0.8,0.8,1.8,2.1,1.8c0.6,0,1.2,0.2,1.8,0.3
		c0.4,0.1,0.7,0.3,0.5,0.6c-0.1,0.2-0.5,0.4-0.7,0.4C13.3,23.6,12.8,23.5,12.1,23.3z"/>
	<circle cx="26.5" cy="13.5" r="0.4"/>
	<circle cx="28.6" cy="13.5" r="0.4"/>
</g>
</svg>
