<?xml version="1.0" encoding="utf-8"?>
<!-- Generator: Adobe Illustrator 24.3.0, SVG Export Plug-In . SVG Version: 6.00 Build 0)  -->
<svg version="1.1" id="Layer_1" xmlns="http://www.w3.org/2000/svg" xmlns:xlink="http://www.w3.org/1999/xlink" x="0px" y="0px"
	 viewBox="0 0 32 32" style="enable-background:new 0 0 32 32;" xml:space="preserve">
<g>
	<path d="M3.4,9.6c-0.7,0.3-1.3,0.5-1.9,0.7c-0.6,0.2-1,0.1-1.2-0.5c-0.2-0.6,0-1,0.6-1.2c1.3-0.5,2.6-1,3.8-1.5
		c0.8-0.3,1.3,0,1.5,0.8c0.3,1.3,0.6,2.7,0.9,4c0.1,0.6,0,1-0.6,1.1c-0.6,0.1-0.9-0.2-1.1-0.8c-0.1-0.6-0.3-1.1-0.5-1.9
		c-1.2,2.8-1.5,5.4-0.9,8.2C5.4,24.8,10.8,29.1,17,29c6.3-0.1,11.7-4.6,12.8-10.8c1.3-7.3-4-14.4-11.3-15.2c-0.2,0-0.4,0-0.6-0.1
		c-0.3-0.3-0.7-0.7-0.7-0.9c0-0.3,0.6-0.7,0.9-0.7c1.1,0.1,2.2,0.3,3.3,0.6c6.7,2.1,10.9,8.5,10.2,15.8c-0.6,6.5-6,12-12.6,13
		C7.6,32.3-1.1,21.1,3.2,10.4C3.2,10.2,3.3,10,3.4,9.6z"/>
	<path d="M17.6,13.4c-0.5,1.5,0.4,2.8,1.8,3.9c0.5,0.3,0.9,0.7,1.2,1.2c0.2,0.3,0.2,0.9,0.1,1.2c-0.3,0.5-0.8,0.5-1.2,0.1
		c-1.1-1-2.3-2.1-3.3-3.2c-0.2-0.2-0.3-0.5-0.3-0.8c0-1.6,0-3.1,0-4.7c0-0.6,0.2-1.1,0.9-1.1c0.7,0,0.9,0.5,0.9,1.1
		C17.6,11.7,17.6,12.3,17.6,13.4z"/>
</g>
</svg>
