<?xml version="1.0" encoding="utf-8"?>
<!-- Generator: Adobe Illustrator 24.3.0, SVG Export Plug-In . SVG Version: 6.00 Build 0)  -->
<svg version="1.1" id="Layer_1" xmlns="http://www.w3.org/2000/svg" xmlns:xlink="http://www.w3.org/1999/xlink" x="0px" y="0px"
	 viewBox="0 0 32 32" style="enable-background:new 0 0 32 32;" xml:space="preserve">
<g>
	<path d="M2.8,23.3c-0.8,0-1.6,0-2.5,0c0-0.4,0-0.8,0-1.2C0,18.4,0.6,15,2,11.6c0.8-2.1,1.4-4.2,2.1-6.4c0.1-0.3,0.2-0.4,0.6-0.4
		c6.4,0,12.8,0,19.2,0c0.1,0,0.2,0,0.5,0c-0.2,1.2,0.5,2.5-0.8,3.6c1.3,0,2.4,0,3.5,0c0.5,0,0.7,0.1,0.9,0.5
		c1.2,2.1,2.3,4.2,3.5,6.3c0.2,0.3,0.3,0.6,0.3,1c0,2.3,0,4.6,0,7c-0.9,0-1.7,0-2.5,0c-0.1,1.3-0.6,2.4-1.6,3.2
		c-0.7,0.5-1.5,0.8-2.4,0.7c-2,0-3.2-1.2-3.9-3.9c-0.1,0-0.3,0-0.5,0c-3.2,0-6.3,0-9.5,0c-0.4,0-0.6,0-0.6,0.5
		c-0.3,2.1-1.9,3.5-4,3.4c-2-0.1-3.5-1.6-3.8-3.7C2.9,23.5,2.9,23.4,2.8,23.3z M2.2,21.4c0.7,0.1,1.2,0,1.6-0.6
		c1.6-2,4.6-1.9,6.1,0.2c0.2,0.3,0.4,0.5,0.8,0.5c3.1,0,6.2,0,9.3,0c0.2,0,0.4,0,0.6,0c0-0.3,0-0.5,0-0.7c0-3.4,0-6.8,0-10.2
		c0-1,0.2-1.7,0.9-2.4c0.4-0.4,0.7-0.8,1.1-1.3c-0.3,0-0.4-0.1-0.6-0.1c-5.3,0-10.7,0-16,0c-0.4,0-0.5,0.2-0.6,0.5
		c-0.9,2.7-1.7,5.3-2.7,7.9C2,17.2,2.3,19.3,2.2,21.4z M29.9,21.4c0-1.5,0-2.9,0-4.5c-1.8,0-3.6,0-5.5,0c0-2.2,0-4.4,0-6.5
		c-0.7,0-1.2,0-1.8,0c0,3.3,0,6.6,0,10c0.2-0.2,0.4-0.3,0.5-0.4c1.7-1.1,4-0.8,5.2,0.8C28.7,21.4,29.2,21.5,29.9,21.4z M6.8,25.3
		c1.1,0,2.1-0.9,2.1-2c0-1.1-0.9-2.1-2.1-2.1c-1.1,0-2.1,0.9-2.1,2.1C4.7,24.4,5.6,25.3,6.8,25.3z M27.3,23.3c0-1.1-0.9-2.1-2.1-2.1
		c-1.1,0-2.1,0.9-2.1,2.1c0,1.1,0.9,2.1,2.1,2.1C26.5,25.3,27.4,24.4,27.3,23.3z M26.3,10.3c0,1.7,0,3.2,0,4.7c1,0,1.9,0,2.9,0
		c-0.9-1.5-1.7-3-2.5-4.4C26.6,10.5,26.5,10.4,26.3,10.3z"/>
	<path d="M13,13.2c-0.2-0.4-0.4-0.7-0.7-1.1c-0.2,0.4-0.5,0.7-0.7,1.1c-0.5-0.3-1-0.6-1.6-0.9c0.4-0.6,0.7-1.3,1.1-1.9
		c0.1-0.1,0.3-0.1,0.4-0.2c1.7-0.1,1.7-0.1,2.6,1.4c0.1,0.2,0.2,0.4,0.4,0.6C14.1,12.6,13.6,12.9,13,13.2z"/>
	<path d="M13.3,17.8c0-0.6,0-1.2,0-1.8c0.4,0,0.8,0,1.3,0c-0.2-0.4-0.4-0.8-0.6-1.2c0.5-0.3,1-0.6,1.6-0.9c0.4,0.6,0.7,1.2,1,1.8
		c0.1,0.1,0.1,0.3,0,0.3c-0.3,0.5-0.6,1.1-0.9,1.6c0,0.1-0.2,0.1-0.3,0.1C14.7,17.8,14,17.8,13.3,17.8z"/>
	<path d="M9.2,13.9c0.6,0.3,1.1,0.6,1.6,0.9c-0.2,0.4-0.4,0.7-0.6,1.1c0.4,0,0.8,0,1.3,0.1c0,0.5,0,1,0,1.5c0,0.1-0.2,0.3-0.4,0.3
		c-0.5,0-1.1,0-1.7,0c-0.1,0-0.3-0.1-0.4-0.1c-0.3-0.5-0.6-1-0.9-1.6c0-0.1,0-0.2,0-0.3C8.5,15.1,8.8,14.5,9.2,13.9z"/>
	<path d="M7.7,24.2c-0.6,0-1.2,0-1.8,0c0-0.6,0-1.2,0-1.8c0.6,0,1.2,0,1.8,0C7.7,23,7.7,23.6,7.7,24.2z"/>
	<path d="M26.2,24.2c-0.6,0-1.2,0-1.8,0c0-0.6,0-1.2,0-1.8c0.6,0,1.1,0,1.8,0C26.2,23,26.2,23.6,26.2,24.2z"/>
</g>
</svg>
