<?xml version="1.0" encoding="utf-8"?>
<!-- Generator: Adobe Illustrator 24.3.0, SVG Export Plug-In . SVG Version: 6.00 Build 0)  -->
<svg version="1.1" id="Layer_1" xmlns="http://www.w3.org/2000/svg" xmlns:xlink="http://www.w3.org/1999/xlink" x="0px" y="0px"
	 viewBox="0 0 32 32" style="enable-background:new 0 0 32 32;" xml:space="preserve">
<path d="M0.3,16C0.3,7.3,7.3,0.2,16,0.3c8.7,0,15.7,7.1,15.7,15.9c0,8.7-7.1,15.7-15.8,15.6C7.3,31.7,0.2,24.6,0.3,16z M12.2,17.6
	c-4-3.2-3.2-7.8-1.1-10c2.4-2.6,6.3-2.9,9.1-0.6c1.4,1.1,2.2,2.6,2.4,4.4c0.3,2.6-0.8,4.6-2.8,6.2c3.7,1.8,4.7,2.9,6.7,7.4
	c3.9-4.1,5.2-12.5-0.4-18.4c-5.5-5.9-14.6-5.9-20.2,0C0.3,12.3,1.5,20.7,5.5,25C6.5,21.4,8.8,19,12.2,17.6z M16,29.9
	c3.1,0,6-1,8.5-2.9c0.4-0.3,0.4-0.5,0.3-0.9c-0.8-4.2-4.6-7.4-8.9-7.3c-4.3,0-8,3.2-8.8,7.3c-0.1,0.4,0,0.7,0.3,0.9
	C10,28.9,12.8,29.8,16,29.9z M16,7.3c-2.6,0-4.8,2.2-4.8,4.8c0,2.6,2.2,4.8,4.8,4.8c2.6,0,4.8-2.2,4.8-4.8C20.8,9.4,18.6,7.3,16,7.3
	z"/>
</svg>
