<?xml version="1.0" encoding="utf-8"?>
<!-- Generator: Adobe Illustrator 24.3.0, SVG Export Plug-In . SVG Version: 6.00 Build 0)  -->
<svg version="1.1" id="Layer_1" xmlns="http://www.w3.org/2000/svg" xmlns:xlink="http://www.w3.org/1999/xlink" x="0px" y="0px"
	 viewBox="0 0 32 32" style="enable-background:new 0 0 32 32;" xml:space="preserve">
<g>
	<path d="M16,5c3.1,0,6.1,0,9.2,0c4,0,6.6,2.6,6.6,6.6c0,3,0,6.1,0,9.1c0,3.6-2.7,6.4-6.3,6.4c-6.3,0-12.6,0-18.9,0
		c-3.6,0-6.3-2.7-6.3-6.4c0-3.1,0-6.2,0-9.3C0.3,7.7,2.9,5,6.6,5C9.7,5,12.9,5,16,5z M16,6.8c-3.1,0-6.2,0-9.3,0
		c-2.8,0-4.6,1.8-4.6,4.6c0,3,0,6,0,9c0,2.9,1.8,4.7,4.7,4.7c6.2,0,12.3,0,18.5,0c2.7,0,4.6-1.9,4.6-4.6c0-3,0-6.1,0-9.1
		c0-2.9-1.8-4.7-4.7-4.7C22.1,6.8,19.1,6.8,16,6.8z"/>
	<path d="M12,15.9c0-1.6,0-3.1,0-4.7c0-0.5,0-0.9,0.5-1.1c0.3-0.1,0.8,0,1.1,0.2c2.6,1.6,5.1,3.2,7.6,4.8c0.9,0.6,0.9,1.3,0,1.9
		c-2.5,1.5-5.1,3.1-7.6,4.6c-0.4,0.2-0.7,0.4-1.2,0.2C12,21.5,12,21.1,12,20.6C12,19.1,12,17.5,12,15.9z M13.9,12.6
		c0,2.3,0,4.4,0,6.7c1.8-1.1,3.6-2.2,5.4-3.3C17.5,14.8,15.7,13.7,13.9,12.6z"/>
</g>
</svg>
