<?xml version="1.0" encoding="utf-8"?>
<!-- Generator: Adobe Illustrator 24.3.0, SVG Export Plug-In . SVG Version: 6.00 Build 0)  -->
<svg version="1.0" id="Layer_1" xmlns="http://www.w3.org/2000/svg" xmlns:xlink="http://www.w3.org/1999/xlink" x="0px" y="0px"
	 viewBox="0 0 100 51.4" style="enable-background:new 0 0 100 51.4;" xml:space="preserve">
<style type="text/css">
	.st0{clip-path:url(#SVGID_3_);fill:url(#SVGID_4_);}
	.st1{clip-path:url(#SVGID_3_);fill:url(#SVGID_5_);}
	.st2{clip-path:url(#SVGID_3_);fill:url(#SVGID_6_);}
	.st3{clip-path:url(#SVGID_3_);fill:url(#SVGID_7_);}
	.st4{clip-path:url(#SVGID_3_);fill:url(#SVGID_8_);}
	.st5{clip-path:url(#SVGID_3_);fill:url(#SVGID_9_);}
	.st6{clip-path:url(#SVGID_3_);fill:url(#SVGID_10_);}
	.st7{clip-path:url(#SVGID_3_);fill:url(#SVGID_11_);}
	.st8{clip-path:url(#SVGID_3_);fill:url(#SVGID_12_);}
	.st9{clip-path:url(#SVGID_3_);fill:url(#SVGID_13_);}
	.st10{clip-path:url(#SVGID_3_);fill:url(#SVGID_14_);}
	.st11{clip-path:url(#SVGID_3_);fill:url(#SVGID_15_);}
	.st12{clip-path:url(#SVGID_3_);fill:url(#SVGID_16_);}
	.st13{clip-path:url(#SVGID_3_);fill:url(#SVGID_17_);}
	.st14{clip-path:url(#SVGID_3_);fill:url(#SVGID_18_);}
	.st15{clip-path:url(#SVGID_3_);fill:url(#SVGID_19_);}
	.st16{clip-path:url(#SVGID_3_);fill:url(#SVGID_20_);}
	.st17{clip-path:url(#SVGID_3_);fill:url(#SVGID_21_);}
	.st18{clip-path:url(#SVGID_3_);fill:url(#SVGID_22_);}
	.st19{clip-path:url(#SVGID_3_);fill:url(#SVGID_23_);}
	.st20{clip-path:url(#SVGID_3_);fill:url(#SVGID_24_);}
	.st21{clip-path:url(#SVGID_3_);fill:url(#SVGID_25_);}
	.st22{clip-path:url(#SVGID_3_);fill:url(#SVGID_26_);}
	.st23{clip-path:url(#SVGID_3_);fill:url(#SVGID_27_);}
	.st24{clip-path:url(#SVGID_3_);fill:url(#SVGID_28_);}
	.st25{clip-path:url(#SVGID_3_);fill:url(#SVGID_29_);}
	.st26{clip-path:url(#SVGID_3_);fill:url(#SVGID_30_);}
	.st27{clip-path:url(#SVGID_3_);fill:url(#SVGID_31_);}
	.st28{clip-path:url(#SVGID_3_);fill:url(#SVGID_32_);}
	.st29{clip-path:url(#SVGID_3_);fill:url(#SVGID_33_);}
	.st30{clip-path:url(#SVGID_3_);fill:url(#SVGID_34_);}
	.st31{clip-path:url(#SVGID_3_);fill:url(#SVGID_35_);}
	.st32{clip-path:url(#SVGID_3_);fill:url(#SVGID_36_);}
	.st33{clip-path:url(#SVGID_3_);fill:url(#SVGID_37_);}
	.st34{clip-path:url(#SVGID_3_);fill:url(#SVGID_38_);}
	.st35{clip-path:url(#SVGID_3_);fill:url(#SVGID_39_);}
	.st36{clip-path:url(#SVGID_3_);fill:url(#SVGID_40_);}
	.st37{clip-path:url(#SVGID_3_);fill:url(#SVGID_41_);}
	.st38{clip-path:url(#SVGID_3_);fill:url(#SVGID_42_);}
	.st39{clip-path:url(#SVGID_3_);fill:url(#SVGID_43_);}
	.st40{clip-path:url(#SVGID_3_);fill:url(#SVGID_44_);}
	.st41{clip-path:url(#SVGID_3_);fill:url(#SVGID_45_);}
	.st42{clip-path:url(#SVGID_3_);fill:url(#SVGID_46_);}
	.st43{clip-path:url(#SVGID_3_);fill:url(#SVGID_47_);}
	.st44{clip-path:url(#SVGID_3_);fill:url(#SVGID_48_);}
	.st45{clip-path:url(#SVGID_3_);fill:url(#SVGID_49_);}
	.st46{clip-path:url(#SVGID_3_);fill:url(#SVGID_50_);}
	.st47{clip-path:url(#SVGID_3_);fill:url(#SVGID_51_);}
	.st48{clip-path:url(#SVGID_3_);fill:url(#SVGID_52_);}
	.st49{clip-path:url(#SVGID_3_);fill:url(#SVGID_53_);}
	.st50{clip-path:url(#SVGID_3_);fill:url(#SVGID_54_);}
	.st51{clip-path:url(#SVGID_3_);fill:url(#SVGID_55_);}
	.st52{clip-path:url(#SVGID_3_);fill:url(#SVGID_56_);}
	.st53{clip-path:url(#SVGID_3_);fill:url(#SVGID_57_);}
	.st54{clip-path:url(#SVGID_3_);fill:url(#SVGID_58_);}
	.st55{clip-path:url(#SVGID_3_);fill:url(#SVGID_59_);}
	.st56{clip-path:url(#SVGID_3_);fill:url(#SVGID_60_);}
	.st57{clip-path:url(#SVGID_3_);fill:url(#SVGID_61_);}
	.st58{clip-path:url(#SVGID_3_);fill:url(#SVGID_62_);}
	.st59{clip-path:url(#SVGID_3_);fill:url(#SVGID_63_);}
	.st60{clip-path:url(#SVGID_3_);fill:url(#SVGID_64_);}
	.st61{clip-path:url(#SVGID_3_);fill:url(#SVGID_65_);}
	.st62{clip-path:url(#SVGID_3_);fill:url(#SVGID_66_);}
	.st63{fill:#005CFF;}
	.st64{clip-path:url(#SVGID_68_);fill:#F5545A;}
	.st65{fill:#F5545A;}
	.st66{fill:#FFFFFF;}
</style>
<g>
	<g>
		<g>
			<defs>
				<path id="SVGID_1_" d="M7.9,28.6l-2.4,3.1c-0.3,0.4-0.3,1.1,0.2,1.4c0.3,0.3,0.8,0.3,1.1,0.1c0.1-0.1,0.2-0.2,0.3-0.3l3.3-4.3
					l2.5,0l2,3.5l-1.3,2.1l-5.4,0.5c-0.6,0.1-1,0.6-0.9,1.1c0.1,0.6,0.6,1,1.1,0.9l3.9-0.4l-2,3.2L7,39.9c-0.5,0-0.8,0.4-0.9,0.9
					c2.2,0.3,4.2,0.3,5.9,0.1L12,40.6l1.7-2.8l0.9,2.5c0.7-0.2,1.3-0.4,1.9-0.7l-1.5-4l1.5-2.4l4.6,0.1l0.7,1.2
					c0.2-0.5,0.5-1,0.6-1.5c0.6-1.6,0.8-3.3,0.6-5l-2,3.3l-4.4-0.1l-2.1-3.8l2.2-3.8l4.4,0.1l1.7,3c-0.3-1.8-0.9-3.5-1.9-5.1
					L17,21.7l-1.5-2.6l1.8-4.2c-0.2-0.6-0.4-1.3-0.6-1.9c-0.4-0.1-0.9,0.1-1.1,0.6l-1.4,3.2L12.7,14l1.3-3c0.2-0.5,0-1.1-0.5-1.3
					c-0.5-0.2-1.1,0-1.3,0.5L10.9,13L8,12.5c-0.5-0.1-1.1,0.3-1.1,0.8c-0.1,0.6,0.3,1.1,0.8,1.1l3.2,0.5l1.6,2.8L9,17.3
					c-0.6-0.1-1.1,0.3-1.1,0.8c-0.1,0.6,0.3,1.1,0.8,1.1l5,0.7l1.5,2.6l-2.3,3.9l-2.9,0l-2.9-3.6c-0.3-0.4-1-0.5-1.4-0.2
					c-0.4,0.3-0.5,1-0.2,1.4l1.9,2.4l-3.3,0l-2-2.6c-0.3-0.4-1-0.5-1.4-0.2c-0.4,0.3-0.5,1-0.2,1.4l1.8,2.3L0.6,30
					c-0.3,0.4-0.3,1.1,0.2,1.4c0.3,0.3,0.8,0.3,1.1,0.1c0.1-0.1,0.2-0.2,0.3-0.3l2-2.6L7.9,28.6z"/>
			</defs>
			<linearGradient id="SVGID_2_" gradientUnits="userSpaceOnUse" x1="0.3386" y1="25.2658" x2="23.2038" y2="25.2658">
				<stop  offset="0.1366" style="stop-color:#005CFF"/>
				<stop  offset="0.9432" style="stop-color:#01D0CC"/>
			</linearGradient>
			<use xlink:href="#SVGID_1_"  style="overflow:visible;fill:url(#SVGID_2_);"/>
			<clipPath id="SVGID_3_">
				<use xlink:href="#SVGID_1_"  style="overflow:visible;"/>
			</clipPath>
			<linearGradient id="SVGID_4_" gradientUnits="userSpaceOnUse" x1="0.2105" y1="36.4401" x2="21.1556" y2="36.4401">
				<stop  offset="0.1366" style="stop-color:#005CFF"/>
				<stop  offset="0.9432" style="stop-color:#01D0CC"/>
			</linearGradient>
			<polygon class="st0" points="0.2,31.9 21.2,39.2 20.5,41 0.2,41 			"/>
			<linearGradient id="SVGID_5_" gradientUnits="userSpaceOnUse" x1="0.2105" y1="35.3597" x2="21.2619" y2="35.3597">
				<stop  offset="0.1366" style="stop-color:#005CFF"/>
				<stop  offset="0.9432" style="stop-color:#01D0CC"/>
			</linearGradient>
			<polygon class="st1" points="0.2,31.5 21.3,38.9 21.2,39.2 0.2,31.9 			"/>
			<linearGradient id="SVGID_6_" gradientUnits="userSpaceOnUse" x1="0.2105" y1="35.0354" x2="21.3682" y2="35.0354">
				<stop  offset="0.1366" style="stop-color:#005CFF"/>
				<stop  offset="0.9432" style="stop-color:#01D0CC"/>
			</linearGradient>
			<polygon class="st2" points="0.2,31.2 21.4,38.6 21.3,38.9 0.2,31.5 			"/>
			<linearGradient id="SVGID_7_" gradientUnits="userSpaceOnUse" x1="0.2105" y1="34.711" x2="21.4744" y2="34.711">
				<stop  offset="0.1366" style="stop-color:#005CFF"/>
				<stop  offset="0.9432" style="stop-color:#01D0CC"/>
			</linearGradient>
			<polygon class="st3" points="0.2,30.9 21.5,38.3 21.4,38.6 0.2,31.2 			"/>
			<linearGradient id="SVGID_8_" gradientUnits="userSpaceOnUse" x1="0.2105" y1="34.3866" x2="21.5807" y2="34.3866">
				<stop  offset="0.1366" style="stop-color:#005CFF"/>
				<stop  offset="0.9432" style="stop-color:#01D0CC"/>
			</linearGradient>
			<polygon class="st4" points="0.2,30.5 21.6,37.9 21.5,38.3 0.2,30.9 			"/>
			<linearGradient id="SVGID_9_" gradientUnits="userSpaceOnUse" x1="0.2105" y1="34.0623" x2="21.687" y2="34.0623">
				<stop  offset="0.1366" style="stop-color:#005CFF"/>
				<stop  offset="0.9432" style="stop-color:#01D0CC"/>
			</linearGradient>
			<polygon class="st5" points="0.2,30.2 21.7,37.6 21.6,37.9 0.2,30.5 			"/>
			<linearGradient id="SVGID_10_" gradientUnits="userSpaceOnUse" x1="0.2105" y1="33.7379" x2="21.7933" y2="33.7379">
				<stop  offset="0.1366" style="stop-color:#005CFF"/>
				<stop  offset="0.9432" style="stop-color:#01D0CC"/>
			</linearGradient>
			<polygon class="st6" points="0.2,29.8 21.8,37.3 21.7,37.6 0.2,30.2 			"/>
			<linearGradient id="SVGID_11_" gradientUnits="userSpaceOnUse" x1="0.2105" y1="33.4136" x2="21.8996" y2="33.4136">
				<stop  offset="0.1366" style="stop-color:#005CFF"/>
				<stop  offset="0.9432" style="stop-color:#01D0CC"/>
			</linearGradient>
			<polygon class="st7" points="0.2,29.5 21.9,37 21.8,37.3 0.2,29.8 			"/>
			<linearGradient id="SVGID_12_" gradientUnits="userSpaceOnUse" x1="0.2105" y1="33.0892" x2="22.0059" y2="33.0892">
				<stop  offset="0.1366" style="stop-color:#005CFF"/>
				<stop  offset="0.9432" style="stop-color:#01D0CC"/>
			</linearGradient>
			<polygon class="st8" points="0.2,29.1 22,36.7 21.9,37 0.2,29.5 			"/>
			<linearGradient id="SVGID_13_" gradientUnits="userSpaceOnUse" x1="0.2105" y1="32.7649" x2="22.1122" y2="32.7649">
				<stop  offset="0.1366" style="stop-color:#005CFF"/>
				<stop  offset="0.9432" style="stop-color:#01D0CC"/>
			</linearGradient>
			<polygon class="st9" points="0.2,28.8 22.1,36.4 22,36.7 0.2,29.1 			"/>
			<linearGradient id="SVGID_14_" gradientUnits="userSpaceOnUse" x1="0.2105" y1="32.4405" x2="22.2184" y2="32.4405">
				<stop  offset="0.1366" style="stop-color:#005CFF"/>
				<stop  offset="0.9432" style="stop-color:#01D0CC"/>
			</linearGradient>
			<polygon class="st10" points="0.2,28.5 22.2,36.1 22.1,36.4 0.2,28.8 			"/>
			<linearGradient id="SVGID_15_" gradientUnits="userSpaceOnUse" x1="0.2105" y1="32.1161" x2="22.3247" y2="32.1161">
				<stop  offset="0.1366" style="stop-color:#005CFF"/>
				<stop  offset="0.9432" style="stop-color:#01D0CC"/>
			</linearGradient>
			<polygon class="st11" points="0.2,28.1 22.3,35.8 22.2,36.1 0.2,28.5 			"/>
			<linearGradient id="SVGID_16_" gradientUnits="userSpaceOnUse" x1="0.2105" y1="31.7918" x2="22.431" y2="31.7918">
				<stop  offset="0.1366" style="stop-color:#005CFF"/>
				<stop  offset="0.9432" style="stop-color:#01D0CC"/>
			</linearGradient>
			<polygon class="st12" points="0.2,27.8 22.4,35.5 22.3,35.8 0.2,28.1 			"/>
			<linearGradient id="SVGID_17_" gradientUnits="userSpaceOnUse" x1="0.2105" y1="31.4674" x2="22.5373" y2="31.4674">
				<stop  offset="0.1366" style="stop-color:#005CFF"/>
				<stop  offset="0.9432" style="stop-color:#01D0CC"/>
			</linearGradient>
			<polygon class="st13" points="0.2,27.4 22.5,35.2 22.4,35.5 0.2,27.8 			"/>
			<linearGradient id="SVGID_18_" gradientUnits="userSpaceOnUse" x1="0.2105" y1="31.1431" x2="22.6436" y2="31.1431">
				<stop  offset="0.1366" style="stop-color:#005CFF"/>
				<stop  offset="0.9432" style="stop-color:#01D0CC"/>
			</linearGradient>
			<polygon class="st14" points="0.2,27.1 22.6,34.9 22.5,35.2 0.2,27.4 			"/>
			<linearGradient id="SVGID_19_" gradientUnits="userSpaceOnUse" x1="0.2105" y1="30.8187" x2="22.7499" y2="30.8187">
				<stop  offset="0.1366" style="stop-color:#005CFF"/>
				<stop  offset="0.9432" style="stop-color:#01D0CC"/>
			</linearGradient>
			<polygon class="st15" points="0.2,26.8 22.7,34.6 22.6,34.9 0.2,27.1 			"/>
			<linearGradient id="SVGID_20_" gradientUnits="userSpaceOnUse" x1="0.2105" y1="30.4944" x2="22.8561" y2="30.4944">
				<stop  offset="0.1366" style="stop-color:#005CFF"/>
				<stop  offset="0.9432" style="stop-color:#01D0CC"/>
			</linearGradient>
			<polygon class="st16" points="0.2,26.4 22.9,34.3 22.7,34.6 0.2,26.8 			"/>
			<linearGradient id="SVGID_21_" gradientUnits="userSpaceOnUse" x1="0.2105" y1="30.17" x2="22.9624" y2="30.17">
				<stop  offset="0.1366" style="stop-color:#005CFF"/>
				<stop  offset="0.9432" style="stop-color:#01D0CC"/>
			</linearGradient>
			<polygon class="st17" points="0.2,26.1 23,34 22.9,34.3 0.2,26.4 			"/>
			<linearGradient id="SVGID_22_" gradientUnits="userSpaceOnUse" x1="0.2105" y1="29.8457" x2="23.0687" y2="29.8457">
				<stop  offset="0.1366" style="stop-color:#005CFF"/>
				<stop  offset="0.9432" style="stop-color:#01D0CC"/>
			</linearGradient>
			<polygon class="st18" points="0.2,25.7 23.1,33.7 23,34 0.2,26.1 			"/>
			<linearGradient id="SVGID_23_" gradientUnits="userSpaceOnUse" x1="0.2105" y1="29.5213" x2="23.175" y2="29.5213">
				<stop  offset="0.1366" style="stop-color:#005CFF"/>
				<stop  offset="0.9432" style="stop-color:#01D0CC"/>
			</linearGradient>
			<polygon class="st19" points="0.2,25.4 23.2,33.4 23.1,33.7 0.2,25.7 			"/>
			<linearGradient id="SVGID_24_" gradientUnits="userSpaceOnUse" x1="0.2105" y1="29.1969" x2="23.2813" y2="29.1969">
				<stop  offset="0.1366" style="stop-color:#005CFF"/>
				<stop  offset="0.9432" style="stop-color:#01D0CC"/>
			</linearGradient>
			<polygon class="st20" points="0.2,25 23.3,33.1 23.2,33.4 0.2,25.4 			"/>
			<linearGradient id="SVGID_25_" gradientUnits="userSpaceOnUse" x1="0.2105" y1="28.8726" x2="23.2887" y2="28.8726">
				<stop  offset="0.1366" style="stop-color:#005CFF"/>
				<stop  offset="0.9432" style="stop-color:#01D0CC"/>
			</linearGradient>
			<polygon class="st21" points="0.2,24.7 23.3,32.7 23.3,33 23.3,33.1 0.2,25 			"/>
			<linearGradient id="SVGID_26_" gradientUnits="userSpaceOnUse" x1="0.2105" y1="28.5311" x2="23.2887" y2="28.5311">
				<stop  offset="0.1366" style="stop-color:#005CFF"/>
				<stop  offset="0.9432" style="stop-color:#01D0CC"/>
			</linearGradient>
			<polygon class="st22" points="0.2,24.4 23.3,32.4 23.3,32.7 0.2,24.7 			"/>
			<linearGradient id="SVGID_27_" gradientUnits="userSpaceOnUse" x1="0.2105" y1="28.1882" x2="23.2887" y2="28.1882">
				<stop  offset="0.1366" style="stop-color:#005CFF"/>
				<stop  offset="0.9432" style="stop-color:#01D0CC"/>
			</linearGradient>
			<polygon class="st23" points="0.2,24 23.3,32 23.3,32.4 0.2,24.4 			"/>
			<linearGradient id="SVGID_28_" gradientUnits="userSpaceOnUse" x1="0.2105" y1="27.8454" x2="23.2887" y2="27.8454">
				<stop  offset="0.1366" style="stop-color:#005CFF"/>
				<stop  offset="0.9432" style="stop-color:#01D0CC"/>
			</linearGradient>
			<polygon class="st24" points="0.2,23.7 23.3,31.7 23.3,32 0.2,24 			"/>
			<linearGradient id="SVGID_29_" gradientUnits="userSpaceOnUse" x1="0.2105" y1="27.5026" x2="23.2887" y2="27.5026">
				<stop  offset="0.1366" style="stop-color:#005CFF"/>
				<stop  offset="0.9432" style="stop-color:#01D0CC"/>
			</linearGradient>
			<polygon class="st25" points="0.2,23.3 23.3,31.3 23.3,31.7 0.2,23.7 			"/>
			<linearGradient id="SVGID_30_" gradientUnits="userSpaceOnUse" x1="0.2105" y1="27.1598" x2="23.2887" y2="27.1598">
				<stop  offset="0.1366" style="stop-color:#005CFF"/>
				<stop  offset="0.9432" style="stop-color:#01D0CC"/>
			</linearGradient>
			<polygon class="st26" points="0.2,23 23.3,31 23.3,31.3 0.2,23.3 			"/>
			<linearGradient id="SVGID_31_" gradientUnits="userSpaceOnUse" x1="0.2105" y1="26.8169" x2="23.2887" y2="26.8169">
				<stop  offset="0.1366" style="stop-color:#005CFF"/>
				<stop  offset="0.9432" style="stop-color:#01D0CC"/>
			</linearGradient>
			<polygon class="st27" points="0.2,22.6 23.3,30.7 23.3,31 0.2,23 			"/>
			<linearGradient id="SVGID_32_" gradientUnits="userSpaceOnUse" x1="0.2105" y1="26.4757" x2="23.2887" y2="26.4757">
				<stop  offset="0.1366" style="stop-color:#005CFF"/>
				<stop  offset="0.9432" style="stop-color:#01D0CC"/>
			</linearGradient>
			<polygon class="st28" points="0.2,22.3 0.2,22.3 23.3,30.3 23.3,30.7 0.2,22.6 			"/>
			<linearGradient id="SVGID_33_" gradientUnits="userSpaceOnUse" x1="0.2198" y1="26.1514" x2="23.2887" y2="26.1514">
				<stop  offset="0.1366" style="stop-color:#005CFF"/>
				<stop  offset="0.9432" style="stop-color:#01D0CC"/>
			</linearGradient>
			<polygon class="st29" points="0.2,22.3 0.3,22 23.3,30 23.3,30.3 			"/>
			<linearGradient id="SVGID_34_" gradientUnits="userSpaceOnUse" x1="0.3261" y1="25.827" x2="23.2887" y2="25.827">
				<stop  offset="0.1366" style="stop-color:#005CFF"/>
				<stop  offset="0.9432" style="stop-color:#01D0CC"/>
			</linearGradient>
			<polygon class="st30" points="0.3,22 0.4,21.7 23.3,29.6 23.3,30 			"/>
			<linearGradient id="SVGID_35_" gradientUnits="userSpaceOnUse" x1="0.4323" y1="25.5027" x2="23.2887" y2="25.5027">
				<stop  offset="0.1366" style="stop-color:#005CFF"/>
				<stop  offset="0.9432" style="stop-color:#01D0CC"/>
			</linearGradient>
			<polygon class="st31" points="0.4,21.7 0.5,21.4 23.3,29.3 23.3,29.6 			"/>
			<linearGradient id="SVGID_36_" gradientUnits="userSpaceOnUse" x1="0.5386" y1="25.1783" x2="23.2887" y2="25.1783">
				<stop  offset="0.1366" style="stop-color:#005CFF"/>
				<stop  offset="0.9432" style="stop-color:#01D0CC"/>
			</linearGradient>
			<polygon class="st32" points="0.5,21.4 0.6,21.1 23.3,28.9 23.3,29.3 			"/>
			<linearGradient id="SVGID_37_" gradientUnits="userSpaceOnUse" x1="0.6449" y1="24.854" x2="23.2887" y2="24.854">
				<stop  offset="0.1366" style="stop-color:#005CFF"/>
				<stop  offset="0.9432" style="stop-color:#01D0CC"/>
			</linearGradient>
			<polygon class="st33" points="0.6,21.1 0.8,20.8 23.3,28.6 23.3,28.9 			"/>
			<linearGradient id="SVGID_38_" gradientUnits="userSpaceOnUse" x1="0.7512" y1="24.5296" x2="23.2887" y2="24.5296">
				<stop  offset="0.1366" style="stop-color:#005CFF"/>
				<stop  offset="0.9432" style="stop-color:#01D0CC"/>
			</linearGradient>
			<polygon class="st34" points="0.8,20.8 0.9,20.5 23.3,28.3 23.3,28.6 			"/>
			<linearGradient id="SVGID_39_" gradientUnits="userSpaceOnUse" x1="0.8575" y1="24.2053" x2="23.2887" y2="24.2053">
				<stop  offset="0.1366" style="stop-color:#005CFF"/>
				<stop  offset="0.9432" style="stop-color:#01D0CC"/>
			</linearGradient>
			<polygon class="st35" points="0.9,20.5 1,20.2 23.3,27.9 23.3,28.3 			"/>
			<linearGradient id="SVGID_40_" gradientUnits="userSpaceOnUse" x1="0.9638" y1="23.8809" x2="23.2887" y2="23.8809">
				<stop  offset="0.1366" style="stop-color:#005CFF"/>
				<stop  offset="0.9432" style="stop-color:#01D0CC"/>
			</linearGradient>
			<polygon class="st36" points="1,20.2 1.1,19.8 23.3,27.6 23.3,27.9 			"/>
			<linearGradient id="SVGID_41_" gradientUnits="userSpaceOnUse" x1="1.07" y1="23.5565" x2="23.2887" y2="23.5565">
				<stop  offset="0.1366" style="stop-color:#005CFF"/>
				<stop  offset="0.9432" style="stop-color:#01D0CC"/>
			</linearGradient>
			<polygon class="st37" points="1.1,19.8 1.2,19.5 23.3,27.2 23.3,27.6 			"/>
			<linearGradient id="SVGID_42_" gradientUnits="userSpaceOnUse" x1="1.1763" y1="23.2322" x2="23.2887" y2="23.2322">
				<stop  offset="0.1366" style="stop-color:#005CFF"/>
				<stop  offset="0.9432" style="stop-color:#01D0CC"/>
			</linearGradient>
			<polygon class="st38" points="1.2,19.5 1.3,19.2 23.3,26.9 23.3,27.2 			"/>
			<linearGradient id="SVGID_43_" gradientUnits="userSpaceOnUse" x1="1.2826" y1="22.9078" x2="23.2887" y2="22.9078">
				<stop  offset="0.1366" style="stop-color:#005CFF"/>
				<stop  offset="0.9432" style="stop-color:#01D0CC"/>
			</linearGradient>
			<polygon class="st39" points="1.3,19.2 1.4,18.9 23.3,26.5 23.3,26.9 			"/>
			<linearGradient id="SVGID_44_" gradientUnits="userSpaceOnUse" x1="1.3889" y1="22.5835" x2="23.2887" y2="22.5835">
				<stop  offset="0.1366" style="stop-color:#005CFF"/>
				<stop  offset="0.9432" style="stop-color:#01D0CC"/>
			</linearGradient>
			<polygon class="st40" points="1.4,18.9 1.5,18.6 23.3,26.2 23.3,26.5 			"/>
			<linearGradient id="SVGID_45_" gradientUnits="userSpaceOnUse" x1="1.4952" y1="22.2591" x2="23.2887" y2="22.2591">
				<stop  offset="0.1366" style="stop-color:#005CFF"/>
				<stop  offset="0.9432" style="stop-color:#01D0CC"/>
			</linearGradient>
			<polygon class="st41" points="1.5,18.6 1.6,18.3 23.3,25.9 23.3,26.2 			"/>
			<linearGradient id="SVGID_46_" gradientUnits="userSpaceOnUse" x1="1.6015" y1="21.9348" x2="23.2887" y2="21.9348">
				<stop  offset="0.1366" style="stop-color:#005CFF"/>
				<stop  offset="0.9432" style="stop-color:#01D0CC"/>
			</linearGradient>
			<polygon class="st42" points="1.6,18.3 1.7,18 23.3,25.5 23.3,25.9 			"/>
			<linearGradient id="SVGID_47_" gradientUnits="userSpaceOnUse" x1="1.7078" y1="21.6104" x2="23.2887" y2="21.6104">
				<stop  offset="0.1366" style="stop-color:#005CFF"/>
				<stop  offset="0.9432" style="stop-color:#01D0CC"/>
			</linearGradient>
			<polygon class="st43" points="1.7,18 1.8,17.7 23.3,25.2 23.3,25.5 			"/>
			<linearGradient id="SVGID_48_" gradientUnits="userSpaceOnUse" x1="1.814" y1="21.2861" x2="23.2887" y2="21.2861">
				<stop  offset="0.1366" style="stop-color:#005CFF"/>
				<stop  offset="0.9432" style="stop-color:#01D0CC"/>
			</linearGradient>
			<polygon class="st44" points="1.8,17.7 1.9,17.4 23.3,24.8 23.3,25.2 			"/>
			<linearGradient id="SVGID_49_" gradientUnits="userSpaceOnUse" x1="1.9203" y1="20.9617" x2="23.2887" y2="20.9617">
				<stop  offset="0.1366" style="stop-color:#005CFF"/>
				<stop  offset="0.9432" style="stop-color:#01D0CC"/>
			</linearGradient>
			<polygon class="st45" points="1.9,17.4 2,17.1 23.3,24.5 23.3,24.8 			"/>
			<linearGradient id="SVGID_50_" gradientUnits="userSpaceOnUse" x1="2.0266" y1="20.6373" x2="23.2887" y2="20.6373">
				<stop  offset="0.1366" style="stop-color:#005CFF"/>
				<stop  offset="0.9432" style="stop-color:#01D0CC"/>
			</linearGradient>
			<polygon class="st46" points="2,17.1 2.1,16.8 23.3,24.1 23.3,24.5 			"/>
			<linearGradient id="SVGID_51_" gradientUnits="userSpaceOnUse" x1="2.1329" y1="20.313" x2="23.2887" y2="20.313">
				<stop  offset="0.1366" style="stop-color:#005CFF"/>
				<stop  offset="0.9432" style="stop-color:#01D0CC"/>
			</linearGradient>
			<polygon class="st47" points="2.1,16.8 2.2,16.5 23.3,23.8 23.3,24.1 			"/>
			<linearGradient id="SVGID_52_" gradientUnits="userSpaceOnUse" x1="2.2392" y1="19.9886" x2="23.2887" y2="19.9886">
				<stop  offset="0.1366" style="stop-color:#005CFF"/>
				<stop  offset="0.9432" style="stop-color:#01D0CC"/>
			</linearGradient>
			<polygon class="st48" points="2.2,16.5 2.3,16.2 23.3,23.5 23.3,23.8 			"/>
			<linearGradient id="SVGID_53_" gradientUnits="userSpaceOnUse" x1="2.3455" y1="19.6643" x2="23.2887" y2="19.6643">
				<stop  offset="0.1366" style="stop-color:#005CFF"/>
				<stop  offset="0.9432" style="stop-color:#01D0CC"/>
			</linearGradient>
			<polygon class="st49" points="2.3,16.2 2.5,15.9 23.3,23.1 23.3,23.5 			"/>
			<linearGradient id="SVGID_54_" gradientUnits="userSpaceOnUse" x1="2.4517" y1="19.3399" x2="23.2887" y2="19.3399">
				<stop  offset="0.1366" style="stop-color:#005CFF"/>
				<stop  offset="0.9432" style="stop-color:#01D0CC"/>
			</linearGradient>
			<polygon class="st50" points="2.5,15.9 2.6,15.6 23.3,22.8 23.3,23.1 			"/>
			<linearGradient id="SVGID_55_" gradientUnits="userSpaceOnUse" x1="2.558" y1="19.0156" x2="23.2887" y2="19.0156">
				<stop  offset="0.1366" style="stop-color:#005CFF"/>
				<stop  offset="0.9432" style="stop-color:#01D0CC"/>
			</linearGradient>
			<polygon class="st51" points="2.6,15.6 2.7,15.3 23.3,22.4 23.3,22.8 			"/>
			<linearGradient id="SVGID_56_" gradientUnits="userSpaceOnUse" x1="2.6643" y1="18.6912" x2="23.2887" y2="18.6912">
				<stop  offset="0.1366" style="stop-color:#005CFF"/>
				<stop  offset="0.9432" style="stop-color:#01D0CC"/>
			</linearGradient>
			<polygon class="st52" points="2.7,15.3 2.8,15 23.3,22.1 23.3,22.4 			"/>
			<linearGradient id="SVGID_57_" gradientUnits="userSpaceOnUse" x1="2.7706" y1="18.3668" x2="23.2887" y2="18.3668">
				<stop  offset="0.1366" style="stop-color:#005CFF"/>
				<stop  offset="0.9432" style="stop-color:#01D0CC"/>
			</linearGradient>
			<polygon class="st53" points="2.8,15 2.9,14.6 23.3,21.7 23.3,22.1 			"/>
			<linearGradient id="SVGID_58_" gradientUnits="userSpaceOnUse" x1="2.8769" y1="18.0425" x2="23.2887" y2="18.0425">
				<stop  offset="0.1366" style="stop-color:#005CFF"/>
				<stop  offset="0.9432" style="stop-color:#01D0CC"/>
			</linearGradient>
			<polygon class="st54" points="2.9,14.6 3,14.3 23.3,21.4 23.3,21.7 			"/>
			<linearGradient id="SVGID_59_" gradientUnits="userSpaceOnUse" x1="2.9832" y1="17.7181" x2="23.2887" y2="17.7181">
				<stop  offset="0.1366" style="stop-color:#005CFF"/>
				<stop  offset="0.9432" style="stop-color:#01D0CC"/>
			</linearGradient>
			<polygon class="st55" points="3,14.3 3.1,14 23.3,21.1 23.3,21.4 			"/>
			<linearGradient id="SVGID_60_" gradientUnits="userSpaceOnUse" x1="3.0894" y1="17.3938" x2="23.2887" y2="17.3938">
				<stop  offset="0.1366" style="stop-color:#005CFF"/>
				<stop  offset="0.9432" style="stop-color:#01D0CC"/>
			</linearGradient>
			<polygon class="st56" points="3.1,14 3.2,13.7 23.3,20.7 23.3,21.1 			"/>
			<linearGradient id="SVGID_61_" gradientUnits="userSpaceOnUse" x1="3.1957" y1="17.0694" x2="23.2887" y2="17.0694">
				<stop  offset="0.1366" style="stop-color:#005CFF"/>
				<stop  offset="0.9432" style="stop-color:#01D0CC"/>
			</linearGradient>
			<polygon class="st57" points="3.2,13.7 3.3,13.4 23.3,20.4 23.3,20.7 			"/>
			<linearGradient id="SVGID_62_" gradientUnits="userSpaceOnUse" x1="3.302" y1="16.7451" x2="23.2887" y2="16.7451">
				<stop  offset="0.1366" style="stop-color:#005CFF"/>
				<stop  offset="0.9432" style="stop-color:#01D0CC"/>
			</linearGradient>
			<polygon class="st58" points="3.3,13.4 3.4,13.1 23.3,20 23.3,20.4 			"/>
			<linearGradient id="SVGID_63_" gradientUnits="userSpaceOnUse" x1="3.4083" y1="16.4207" x2="23.2887" y2="16.4207">
				<stop  offset="0.1366" style="stop-color:#005CFF"/>
				<stop  offset="0.9432" style="stop-color:#01D0CC"/>
			</linearGradient>
			<polygon class="st59" points="3.4,13.1 3.5,12.8 23.3,19.7 23.3,20 			"/>
			<linearGradient id="SVGID_64_" gradientUnits="userSpaceOnUse" x1="3.5146" y1="16.0964" x2="23.2887" y2="16.0964">
				<stop  offset="0.1366" style="stop-color:#005CFF"/>
				<stop  offset="0.9432" style="stop-color:#01D0CC"/>
			</linearGradient>
			<polygon class="st60" points="3.5,12.8 3.6,12.5 23.3,19.3 23.3,19.7 			"/>
			<linearGradient id="SVGID_65_" gradientUnits="userSpaceOnUse" x1="3.6209" y1="15.772" x2="23.2887" y2="15.772">
				<stop  offset="0.1366" style="stop-color:#005CFF"/>
				<stop  offset="0.9432" style="stop-color:#01D0CC"/>
			</linearGradient>
			<polygon class="st61" points="3.6,12.5 3.7,12.2 23.3,19 23.3,19.3 			"/>
			<linearGradient id="SVGID_66_" gradientUnits="userSpaceOnUse" x1="3.7272" y1="14.2303" x2="23.2887" y2="14.2303">
				<stop  offset="0.1366" style="stop-color:#005CFF"/>
				<stop  offset="0.9432" style="stop-color:#01D0CC"/>
			</linearGradient>
			<polygon class="st62" points="3.7,12.2 4.7,9.5 23.3,9.5 23.3,19 			"/>
		</g>
	</g>
	<path class="st63" d="M28,37.3c0.4-6.2-1.4-10.4-2.6-13.5l-0.3-0.7c1.3,3.7,1.2,8.4-2.2,13.7c-4,6.4-10.8,6.3-14.6,5.7
		c-1.1-0.2-1.9,1.1-1.2,2c1,1.4,2.1,2.6,3.4,3.5c5.8,4.5,14.3,1.8,16.5-5.3C27.5,41.1,27.8,39.3,28,37.3z"/>
	<g>
		<g>
			<defs>
				<path id="SVGID_67_" d="M27.3,14.9c-10.8-7.4-7-13.6-7-13.6c-3.1,1.4-3.6,5.1-3,8.2c0.3,1.6,0.9,3.6,1.8,4.9
					c1.2,1.8,3,3.4,4.3,5.2c0.8,1,1.8,2.1,2.4,3.2c1.8,3.2,2.8,6.6,3.4,10.2c1,5.2,0.4,10.6-1.4,15.5c-0.2,0.5,0.3,1,0.8,0.7
					c1.7-0.8,3.2-1.9,4.6-3.2C41.3,38.7,38.1,22.3,27.3,14.9z"/>
			</defs>
			<use xlink:href="#SVGID_67_"  style="overflow:visible;fill:#F5545A;"/>
			<clipPath id="SVGID_68_">
				<use xlink:href="#SVGID_67_"  style="overflow:visible;"/>
			</clipPath>
			<rect x="16.5" y="1.3" class="st64" width="2.7" height="48.1"/>
			<rect x="19.2" y="1.3" class="st64" width="0.1" height="48.1"/>
			<rect x="19.3" y="1.3" class="st64" width="0.1" height="48.1"/>
			<rect x="19.4" y="1.3" class="st64" width="0.1" height="48.1"/>
			<rect x="19.5" y="1.3" class="st64" width="0.1" height="48.1"/>
			<rect x="19.6" y="1.3" class="st64" width="0.1" height="48.1"/>
			<rect x="19.7" y="1.3" class="st64" width="0.1" height="48.1"/>
			<rect x="19.8" y="1.3" class="st64" width="0.1" height="48.1"/>
			<rect x="19.9" y="1.3" class="st64" width="0.1" height="48.1"/>
			<rect x="20" y="1.3" class="st64" width="0.1" height="48.1"/>
			<rect x="20.1" y="1.3" class="st64" width="0.1" height="48.1"/>
			<rect x="20.2" y="1.3" class="st64" width="0.1" height="48.1"/>
			<rect x="20.3" y="1.3" class="st64" width="0.1" height="48.1"/>
			<rect x="20.4" y="1.3" class="st64" width="0.1" height="48.1"/>
			<rect x="20.5" y="1.3" class="st64" width="0.1" height="48.1"/>
			<rect x="20.6" y="1.3" class="st64" width="0.1" height="48.1"/>
			<rect x="20.7" y="1.3" class="st64" width="0.1" height="48.1"/>
			<rect x="20.8" y="1.3" class="st64" width="0.1" height="48.1"/>
			<rect x="20.9" y="1.3" class="st64" width="0.1" height="48.1"/>
			<rect x="21" y="1.3" class="st64" width="0.1" height="48.1"/>
			<rect x="21.1" y="1.3" class="st64" width="0.1" height="48.1"/>
			<rect x="21.2" y="1.3" class="st64" width="0.1" height="48.1"/>
			<rect x="21.3" y="1.3" class="st64" width="0.1" height="48.1"/>
			<rect x="21.4" y="1.3" class="st64" width="0.1" height="48.1"/>
			<rect x="21.5" y="1.3" class="st64" width="0.1" height="48.1"/>
			<rect x="21.6" y="1.3" class="st64" width="0.1" height="48.1"/>
			<rect x="21.7" y="1.3" class="st64" width="0.1" height="48.1"/>
			<rect x="21.8" y="1.3" class="st64" width="0.1" height="48.1"/>
			<rect x="21.9" y="1.3" class="st64" width="0.1" height="48.1"/>
			<rect x="22" y="1.3" class="st64" width="0.1" height="48.1"/>
			<rect x="22.1" y="1.3" class="st64" width="0.1" height="48.1"/>
			<rect x="22.2" y="1.3" class="st64" width="0.1" height="48.1"/>
			<rect x="22.3" y="1.3" class="st64" width="0.1" height="48.1"/>
			<rect x="22.4" y="1.3" class="st64" width="0.1" height="48.1"/>
			<rect x="22.5" y="1.3" class="st64" width="0.1" height="48.1"/>
			<rect x="22.6" y="1.3" class="st64" width="0.1" height="48.1"/>
			<rect x="22.7" y="1.3" class="st64" width="0.1" height="48.1"/>
			<rect x="22.8" y="1.3" class="st64" width="0.1" height="48.1"/>
			<rect x="22.9" y="1.3" class="st64" width="0.1" height="48.1"/>
			<rect x="23" y="1.3" class="st64" width="0.1" height="48.1"/>
			<rect x="23.1" y="1.3" class="st64" width="0.1" height="48.1"/>
			<rect x="23.2" y="1.3" class="st64" width="0.1" height="48.1"/>
			<rect x="23.3" y="1.3" class="st64" width="0.1" height="48.1"/>
			<rect x="23.4" y="1.3" class="st64" width="0.1" height="48.1"/>
			<rect x="23.5" y="1.3" class="st64" width="0.1" height="48.1"/>
			<rect x="23.6" y="1.3" class="st64" width="0.1" height="48.1"/>
			<rect x="23.7" y="1.3" class="st64" width="0.1" height="48.1"/>
			<rect x="23.7" y="1.3" class="st64" width="0.1" height="48.1"/>
			<rect x="23.8" y="1.3" class="st64" width="0.1" height="48.1"/>
			<rect x="23.9" y="1.3" class="st64" width="0.1" height="48.1"/>
			<rect x="24" y="1.3" class="st64" width="0.1" height="48.1"/>
			<rect x="24.1" y="1.3" class="st64" width="0.1" height="48.1"/>
			<rect x="24.2" y="1.3" class="st64" width="0.1" height="48.1"/>
			<rect x="24.3" y="1.3" class="st64" width="0.1" height="48.1"/>
			<rect x="24.4" y="1.3" class="st64" width="0.1" height="48.1"/>
			<rect x="24.5" y="1.3" class="st64" width="0.1" height="48.1"/>
			<rect x="24.6" y="1.3" class="st64" width="0.1" height="48.1"/>
			<rect x="24.7" y="1.3" class="st64" width="0.1" height="48.1"/>
			<rect x="24.8" y="1.3" class="st64" width="0.1" height="48.1"/>
			<rect x="24.9" y="1.3" class="st64" width="0.1" height="48.1"/>
			<rect x="25" y="1.3" class="st64" width="0.1" height="48.1"/>
			<rect x="25.1" y="1.3" class="st64" width="0.1" height="48.1"/>
			<rect x="25.2" y="1.3" class="st64" width="0.1" height="48.1"/>
			<rect x="25.3" y="1.3" class="st64" width="0.1" height="48.1"/>
			<rect x="25.4" y="1.3" class="st64" width="0.1" height="48.1"/>
			<rect x="25.5" y="1.3" class="st64" width="0.1" height="48.1"/>
			<rect x="25.6" y="1.3" class="st64" width="0.1" height="48.1"/>
			<rect x="25.7" y="1.3" class="st64" width="0.1" height="48.1"/>
			<rect x="25.8" y="1.3" class="st64" width="0.1" height="48.1"/>
			<rect x="25.9" y="1.3" class="st64" width="0.1" height="48.1"/>
			<rect x="26" y="1.3" class="st64" width="0.1" height="48.1"/>
			<rect x="26.1" y="1.3" class="st64" width="0.1" height="48.1"/>
			<rect x="26.2" y="1.3" class="st64" width="0.1" height="48.1"/>
			<rect x="26.3" y="1.3" class="st64" width="0.1" height="48.1"/>
			<rect x="26.4" y="1.3" class="st64" width="0.1" height="48.1"/>
			<rect x="26.5" y="1.3" class="st64" width="0.1" height="48.1"/>
			<rect x="26.6" y="1.3" class="st64" width="0.1" height="48.1"/>
			<rect x="26.7" y="1.3" class="st64" width="0.1" height="48.1"/>
			<rect x="26.8" y="1.3" class="st64" width="0.1" height="48.1"/>
			<rect x="26.9" y="1.3" class="st64" width="0.1" height="48.1"/>
			<rect x="27" y="1.3" class="st64" width="0.1" height="48.1"/>
			<rect x="27.1" y="1.3" class="st64" width="0.1" height="48.1"/>
			<rect x="27.2" y="1.3" class="st64" width="0.1" height="48.1"/>
			<rect x="27.3" y="1.3" class="st64" width="0.1" height="48.1"/>
			<rect x="27.4" y="1.3" class="st64" width="0.1" height="48.1"/>
			<rect x="27.5" y="1.3" class="st64" width="0.1" height="48.1"/>
			<rect x="27.6" y="1.3" class="st64" width="0.1" height="48.1"/>
			<rect x="27.7" y="1.3" class="st64" width="0.1" height="48.1"/>
			<rect x="27.8" y="1.3" class="st64" width="0.1" height="48.1"/>
			<rect x="27.9" y="1.3" class="st64" width="0.1" height="48.1"/>
			<rect x="28" y="1.3" class="st64" width="0.1" height="48.1"/>
			<rect x="28.1" y="1.3" class="st64" width="0.1" height="48.1"/>
			<rect x="28.2" y="1.3" class="st64" width="0.1" height="48.1"/>
			<rect x="28.3" y="1.3" class="st64" width="0.1" height="48.1"/>
			<rect x="28.4" y="1.3" class="st64" width="0.1" height="48.1"/>
			<rect x="28.5" y="1.3" class="st64" width="0.1" height="48.1"/>
			<rect x="28.6" y="1.3" class="st64" width="0.1" height="48.1"/>
			<rect x="28.7" y="1.3" class="st64" width="0.1" height="48.1"/>
			<rect x="28.8" y="1.3" class="st64" width="0.1" height="48.1"/>
			<rect x="28.9" y="1.3" class="st64" width="0.1" height="48.1"/>
			<rect x="29" y="1.3" class="st64" width="0.1" height="48.1"/>
			<rect x="29.1" y="1.3" class="st64" width="0.1" height="48.1"/>
			<rect x="29.2" y="1.3" class="st64" width="0.1" height="48.1"/>
			<rect x="29.3" y="1.3" class="st64" width="0.1" height="48.1"/>
			<rect x="29.4" y="1.3" class="st64" width="0.1" height="48.1"/>
			<rect x="29.5" y="1.3" class="st64" width="0.1" height="48.1"/>
			<rect x="29.6" y="1.3" class="st64" width="0.1" height="48.1"/>
			<rect x="29.7" y="1.3" class="st64" width="0.1" height="48.1"/>
			<rect x="29.8" y="1.3" class="st64" width="0.1" height="48.1"/>
			<rect x="29.9" y="1.3" class="st64" width="0.1" height="48.1"/>
			<rect x="30" y="1.3" class="st64" width="0.1" height="48.1"/>
			<rect x="30.1" y="1.3" class="st64" width="0.1" height="48.1"/>
			<rect x="30.2" y="1.3" class="st64" width="0.1" height="48.1"/>
			<rect x="30.3" y="1.3" class="st64" width="0.1" height="48.1"/>
			<rect x="30.4" y="1.3" class="st64" width="0.1" height="48.1"/>
			<rect x="30.5" y="1.3" class="st64" width="0.1" height="48.1"/>
			<rect x="30.6" y="1.3" class="st64" width="0.1" height="48.1"/>
			<rect x="30.7" y="1.3" class="st64" width="0.1" height="48.1"/>
			<rect x="30.7" y="1.3" class="st64" width="0.1" height="48.1"/>
			<rect x="30.8" y="1.3" class="st64" width="0.1" height="48.1"/>
			<rect x="30.9" y="1.3" class="st64" width="0.1" height="48.1"/>
			<rect x="31" y="1.3" class="st64" width="0.1" height="48.1"/>
			<rect x="31.1" y="1.3" class="st64" width="0.1" height="48.1"/>
			<rect x="31.2" y="1.3" class="st64" width="0.1" height="48.1"/>
			<rect x="31.3" y="1.3" class="st64" width="0.1" height="48.1"/>
			<rect x="31.4" y="1.3" class="st64" width="0.1" height="48.1"/>
			<rect x="31.5" y="1.3" class="st64" width="0.1" height="48.1"/>
			<rect x="31.6" y="1.3" class="st64" width="0.1" height="48.1"/>
			<rect x="31.7" y="1.3" class="st64" width="0.1" height="48.1"/>
			<rect x="31.8" y="1.3" class="st64" width="0.1" height="48.1"/>
			<rect x="31.9" y="1.3" class="st64" width="0.1" height="48.1"/>
			<rect x="32" y="1.3" class="st64" width="0.1" height="48.1"/>
			<rect x="32.1" y="1.3" class="st64" width="0.1" height="48.1"/>
			<rect x="32.2" y="1.3" class="st64" width="0.1" height="48.1"/>
			<rect x="32.3" y="1.3" class="st64" width="0.1" height="48.1"/>
			<rect x="32.4" y="1.3" class="st64" width="0.1" height="48.1"/>
			<rect x="32.5" y="1.3" class="st64" width="0.1" height="48.1"/>
			<rect x="32.6" y="1.3" class="st64" width="0.1" height="48.1"/>
			<rect x="32.7" y="1.3" class="st64" width="0.1" height="48.1"/>
			<rect x="32.8" y="1.3" class="st64" width="0.1" height="48.1"/>
			<rect x="32.9" y="1.3" class="st64" width="0.1" height="48.1"/>
			<rect x="33" y="1.3" class="st64" width="0.1" height="48.1"/>
			<rect x="33.1" y="1.3" class="st64" width="0.1" height="48.1"/>
			<rect x="33.2" y="1.3" class="st64" width="0.1" height="48.1"/>
			<rect x="33.3" y="1.3" class="st64" width="0.1" height="48.1"/>
			<rect x="33.4" y="1.3" class="st64" width="0.1" height="48.1"/>
			<rect x="33.5" y="1.3" class="st64" width="0.1" height="48.1"/>
			<rect x="33.6" y="1.3" class="st64" width="0.1" height="48.1"/>
			<rect x="33.7" y="1.3" class="st64" width="0.1" height="48.1"/>
			<rect x="33.8" y="1.3" class="st64" width="0.1" height="48.1"/>
			<rect x="33.9" y="1.3" class="st64" width="0.1" height="48.1"/>
			<rect x="34" y="1.3" class="st64" width="0.1" height="48.1"/>
			<rect x="34.1" y="1.3" class="st64" width="0.1" height="48.1"/>
			<rect x="34.2" y="1.3" class="st64" width="0.1" height="48.1"/>
			<rect x="34.3" y="1.3" class="st64" width="7" height="48.1"/>
		</g>
	</g>
	<path class="st65" d="M23.8,9.4c-2.7-2.1-3.2-5.1-3.2-5.1c0,0.2-0.1,0.3-0.1,0.5c0,0.5,0.1,1,0.2,1.4c0.8,2.2,2.8,5,7.1,7.9
		c2.7,1.9,5,4.3,6.6,7c8.9,12.3,2.3,22.5,2.3,22.5C50.1,24,31.5,15.4,23.8,9.4z"/>
</g>
<g>
	<g>
		<path class="st66" d="M47,26.5V14.2h-2.2v-1.9h7v1.9h-2.2v12.2H47z"/>
		<path class="st66" d="M53.1,26.5V12.3H59v1.8h-3.3v4.1h2.6V20h-2.6v4.7H59v1.8H53.1z"/>
		<path class="st66" d="M64.3,26.7c-1,0-1.8-0.2-2.4-0.6c-0.6-0.4-1-1-1.2-1.7c-0.2-0.7-0.3-1.5-0.3-2.4v-5c0-1,0.1-1.8,0.3-2.5
			s0.6-1.3,1.2-1.6c0.6-0.4,1.4-0.6,2.4-0.6c1,0,1.7,0.2,2.3,0.5c0.6,0.3,0.9,0.8,1.2,1.4c0.2,0.6,0.3,1.3,0.3,2.1v1.2h-2.5v-1.2
			c0-0.4,0-0.8-0.1-1.1c0-0.3-0.2-0.6-0.3-0.8c-0.2-0.2-0.5-0.3-0.9-0.3c-0.4,0-0.8,0.1-1,0.3c-0.2,0.2-0.3,0.5-0.4,0.8
			c-0.1,0.3-0.1,0.7-0.1,1.2v6.1c0,0.5,0,0.9,0.1,1.3c0.1,0.3,0.2,0.6,0.4,0.8c0.2,0.2,0.5,0.3,0.9,0.3c0.4,0,0.7-0.1,0.9-0.3
			c0.2-0.2,0.3-0.5,0.3-0.8c0-0.3,0.1-0.7,0.1-1.1v-1.3h2.5v1.1c0,0.8-0.1,1.6-0.3,2.2s-0.6,1.2-1.2,1.5
			C66.1,26.5,65.3,26.7,64.3,26.7z"/>
		<path class="st66" d="M70,26.5V12.3h2.6v5.9h2.9v-5.9H78v14.1h-2.6v-6.4h-2.9v6.4H70z"/>
		<path class="st66" d="M80.2,26.5V12.3H86v1.8h-3.2v4.1h2.6V20h-2.6v6.4H80.2z"/>
		<path class="st66" d="M87.5,26.5V12.3H90v14.1H87.5z"/>
		<path class="st66" d="M91.3,26.5l2.8-7.5l-2.8-6.6h2.4l1.8,4.4l1.6-4.4h2.2l-2.7,7.1l2.9,7h-2.4l-2-4.7l-1.7,4.7H91.3z"/>
	</g>
	<g>
		<path class="st66" d="M63.2,32.9c0.5,0.3,0.9,0.7,1.2,1.2c0.3,0.5,0.4,1.1,0.4,1.8s-0.1,1.3-0.4,1.8c-0.3,0.5-0.7,0.9-1.2,1.2
			c-0.5,0.3-1.1,0.4-1.8,0.4h-2v-6.7h2C62.1,32.5,62.7,32.6,63.2,32.9z M63.3,37.8c0.4-0.5,0.7-1.1,0.7-1.9c0-0.8-0.2-1.5-0.7-1.9
			c-0.4-0.5-1.1-0.7-1.9-0.7h-1.2v5.3h1.2C62.2,38.5,62.8,38.2,63.3,37.8z"/>
		<path class="st66" d="M66.8,32.5v4.2c0,0.6,0.1,1,0.4,1.3c0.3,0.3,0.7,0.4,1.2,0.4c0.5,0,0.9-0.1,1.2-0.4c0.3-0.3,0.4-0.7,0.4-1.3
			v-4.2h0.8v4.2c0,0.6-0.1,1-0.3,1.4S70,38.8,69.6,39s-0.8,0.3-1.2,0.3s-0.9-0.1-1.2-0.3c-0.4-0.2-0.7-0.5-0.9-0.8
			c-0.2-0.4-0.3-0.8-0.3-1.4v-4.2H66.8z"/>
		<path class="st66" d="M76.1,36c0.2,0.2,0.4,0.4,0.5,0.6c0.1,0.2,0.2,0.5,0.2,0.8c0,0.3-0.1,0.6-0.3,0.9c-0.2,0.3-0.4,0.5-0.7,0.6
			c-0.3,0.2-0.7,0.2-1.1,0.2h-2.4v-6.7h2.3c0.4,0,0.8,0.1,1.1,0.2s0.5,0.4,0.7,0.6s0.2,0.5,0.2,0.9c0,0.4-0.1,0.7-0.3,1
			c-0.2,0.3-0.5,0.4-0.8,0.6C75.7,35.8,75.9,35.9,76.1,36z M73.1,35.4h1.4c0.4,0,0.7-0.1,0.9-0.3c0.2-0.2,0.3-0.5,0.3-0.8
			c0-0.3-0.1-0.6-0.3-0.8c-0.2-0.2-0.5-0.3-0.9-0.3h-1.4V35.4z M75.6,38.2c0.2-0.2,0.4-0.5,0.4-0.9c0-0.4-0.1-0.7-0.4-0.9
			c-0.2-0.2-0.6-0.3-1-0.3h-1.5v2.4h1.5C75,38.5,75.3,38.4,75.6,38.2z"/>
		<path class="st66" d="M81.8,37.7h-2.8l-0.5,1.5h-0.9l2.3-6.7h1l2.3,6.7h-0.9L81.8,37.7z M81.5,37l-1.2-3.4L79.2,37H81.5z"/>
		<path class="st66" d="M85.1,32.5v6.7h-0.8v-6.7H85.1z"/>
	</g>
</g>
</svg>
